<?xml version="1.0" encoding="UTF-8"?>
<svg version="1.1" xmlns="http://www.w3.org/2000/svg" width="3792" height="1616">
<path d="M0 0 C0.90571495 0.44363136 0.90571495 0.44363136 1.82972717 0.89622498 C3.13205214 1.53451966 4.43317839 2.17526482 5.73321533 2.81820679 C9.25010583 4.55575504 12.77804906 6.27062876 16.3046875 7.98828125 C17.02184937 8.33808548 17.73901123 8.68788971 18.47790527 9.04829407 C72.93764809 35.58406313 128.94103046 58.98987359 185.71484375 80.078125 C187.44921927 80.72428246 189.18359427 81.37044131 190.91796875 82.01660156 C221.23359369 93.29115983 251.81760365 103.75797759 282.49481201 114.00262451 C285.50507621 115.008062 288.51455191 116.01582738 291.52392578 117.02392578 C336.74734116 132.14739706 382.50824117 145.50628609 428.7074585 157.3092041 C431.71286466 158.07761899 434.71706355 158.85062797 437.72119141 159.62402344 C473.9614011 168.92601715 510.49780937 176.84741461 547.390625 183.109375 C548.1859111 183.24460571 548.9811972 183.37983643 549.80058289 183.51916504 C567.6605076 186.48730213 585.6033249 188.91049862 603.55078125 191.27734375 C605.62135891 191.55172133 607.69191565 191.82625682 609.76245117 192.10095215 C614.74634423 192.76181934 619.73051032 193.42058774 624.71484375 194.078125 C624.73803912 237.48169547 624.75550495 280.88526519 624.76590908 324.2888407 C624.76715889 329.48349472 624.7684533 334.67814873 624.76977539 339.87280273 C624.7700377 340.90640376 624.77030001 341.94000479 624.77057027 343.00492706 C624.77432469 357.43634232 624.78046794 371.86775477 624.78857915 386.29916821 C624.87965071 548.47919181 624.87965071 548.47919181 624.2734375 612.08984375 C624.26357166 613.15796114 624.25370581 614.22607853 624.243541 615.32656312 C624.06075559 635.05963205 623.82197769 654.78896618 623.24243164 674.51489258 C623.20532043 675.83163562 623.16820921 677.14837866 623.12997341 678.505023 C623.09091413 679.70334664 623.05185484 680.90167028 623.01161194 682.13630676 C622.97850953 683.17077344 622.94540712 684.20524012 622.91130161 685.27105427 C622.72359217 687.95312394 622.30733455 690.45855445 621.71484375 693.078125 C644.32510579 693.93672828 666.93032686 694.54198015 689.55483818 694.86308479 C700.0664425 695.01789503 710.56486184 695.25015804 721.06933594 695.67382812 C774.43276497 699.62579753 774.43276497 699.62579753 821.87554932 679.58197021 C838.496553 663.98029673 846.22004017 646.10227949 847.03515625 623.4453125 C847.11399706 615.41810914 846.63712714 607.45014949 846.06231689 599.44732666 C845.68472356 593.51678042 845.56015535 587.58051102 845.41015625 581.640625 C845.08344495 570.10177092 844.49156596 558.59487015 843.71484375 547.078125 C843.10009689 546.87783188 842.48535004 546.67753876 841.85197449 546.47117615 C840.63976982 546.07250084 840.63976982 546.07250084 839.40307617 545.66577148 C838.60270432 545.40360336 837.80233246 545.14143524 836.97770691 544.87132263 C817.81763873 538.15517604 802.5505817 520.51193811 793.59912109 502.953125 C791.03855829 497.5237704 789.30981611 491.85747829 787.71484375 486.078125 C787.46863281 485.20285156 787.22242188 484.32757813 786.96875 483.42578125 C781.65133938 460.21253353 787.57562998 436.14042371 799.6328125 416.09765625 C812.74632811 397.07936814 832.28039613 383.88536225 854.77734375 378.765625 C856.4177564 378.50042496 858.06476994 378.27444402 859.71484375 378.078125 C860.81828125 377.94535156 861.92171875 377.81257813 863.05859375 377.67578125 C886.2059464 375.51179555 909.51375786 381.39191855 927.87792969 395.95458984 C945.81330448 410.89011657 957.71231672 431.81477414 960.40234375 455.140625 C962.17240925 478.33585838 956.83468397 501.5239574 941.76953125 519.76953125 C929.37607183 533.69450181 916.51005061 543.13862533 898.71484375 549.078125 C898.05484375 549.078125 897.39484375 549.078125 896.71484375 549.078125 C896.78490002 549.64197781 896.85495628 550.20583061 896.92713547 550.78676987 C910.94602942 665.58694592 910.94602942 665.58694592 879.77148438 707.92773438 C860.52070536 732.22712231 837.36333788 746.49294933 806.61578524 750.21733087 C744.53785161 756.99883078 680.82084046 752.558995 618.71484375 748.078125 C618.6321576 749.22830974 618.6321576 749.22830974 618.54780102 750.40173054 C618.29360369 753.92395324 618.03683377 757.44598404 617.7800293 760.96801758 C617.69337761 762.17399849 617.60672592 763.3799794 617.51744843 764.62250519 C616.80310332 774.38059802 615.81258886 784.0677362 614.52734375 793.765625 C614.42257721 794.56875122 614.31781067 795.37187744 614.20986938 796.19934082 C605.46627488 862.82383162 605.46627488 862.82383162 595.71484375 892.078125 C670.95484375 892.078125 746.19484375 892.078125 823.71484375 892.078125 C824.37484375 890.098125 825.03484375 888.118125 825.71484375 886.078125 C836.78920553 864.51226259 855.07644591 849.96951789 877.65234375 841.765625 C901.12752468 834.45316891 926.18878107 837.99961647 947.734375 849.28125 C967.97578128 861.48445693 982.33807667 879.86105425 988.90234375 902.64453125 C994.68545901 927.08375393 991.28390908 951.83231369 978.23828125 973.3125 C974.41938625 979.22892834 969.73945028 984.17821673 964.71484375 989.078125 C963.62236328 990.18414063 963.62236328 990.18414063 962.5078125 991.3125 C946.10975004 1007.01083067 923.73304434 1013.62263574 901.48803711 1013.42944336 C877.56022589 1012.80554204 855.69548292 1002.789333 839.10986328 985.60546875 C829.21552408 974.77260455 821.79954998 961.67106859 819.71484375 947.078125 C740.84484375 947.078125 661.97484375 947.078125 580.71484375 947.078125 C579.39484375 952.358125 578.07484375 957.638125 576.71484375 963.078125 C575.86903259 966.02553095 575.01470055 968.94457969 574.0859375 971.86328125 C573.85523056 972.59996536 573.62452362 973.33664948 573.38682556 974.09565735 C572.64804287 976.44594264 571.90118529 978.79352675 571.15234375 981.140625 C570.8926178 981.95839417 570.63289185 982.77616333 570.36529541 983.61871338 C562.5434164 1008.21017735 553.98232825 1032.38401757 543.71484375 1056.078125 C547.52249172 1060.60601559 551.43857139 1064.97194494 555.57203674 1069.20361328 C556.12996019 1069.7779136 556.68788363 1070.35221392 557.26271385 1070.94391727 C559.11371705 1072.84764053 560.96797488 1074.74815494 562.82250977 1076.6484375 C564.15879781 1078.02049897 565.4950497 1079.39259565 566.83126831 1080.76472473 C579.00083502 1093.25044453 591.23569805 1105.67202601 603.48962498 1118.0749054 C611.71562224 1126.40332481 619.91957927 1134.75133902 628.07299805 1143.15087891 C635.20291561 1150.49596947 642.37103027 1157.80114239 649.5874266 1165.06132507 C653.39934737 1168.89896345 657.19008315 1172.75307964 660.93567085 1176.65557861 C664.46302419 1180.32931235 668.03976146 1183.94686119 671.65954208 1187.5294857 C672.97157599 1188.84594295 674.26516845 1190.18110954 675.53709602 1191.53635597 C680.97900275 1197.31603736 685.70208492 1202.26098745 693.99537468 1202.59744263 C698.46118017 1202.49420857 702.81899644 1201.94741637 707.23735511 1201.32460213 C727.07328506 1199.35119125 748.90759691 1208.02672669 764.18457031 1220.20947266 C782.13888727 1235.27317413 793.36519842 1255.51879212 796.46484375 1278.828125 C796.56929147 1280.2433916 796.65252522 1281.66037845 796.71484375 1283.078125 C796.7921875 1284.22667969 796.7921875 1284.22667969 796.87109375 1285.3984375 C797.6932516 1307.80223883 789.99893152 1328.95573038 775.71484375 1346.078125 C774.94914062 1347.04363281 774.1834375 1348.00914063 773.39453125 1349.00390625 C760.6972574 1364.17042613 740.04778993 1373.61840414 720.71484375 1376.078125 C694.3994606 1377.45477946 670.99993941 1372.57504963 650.73193359 1354.86889648 C634.43404317 1340.13730289 622.85950003 1319.13313017 621.59008789 1296.89233398 C620.76728467 1272.26719205 626.6968068 1250.27133495 642.71484375 1231.078125 C637.33831647 1224.54862639 631.39734135 1218.6192629 625.41699219 1212.65087891 C624.27630291 1211.50883271 623.13582607 1210.3665743 621.99554443 1209.22412109 C618.91554809 1206.13958768 615.83242352 1203.05819933 612.74856853 1199.97752428 C609.51823545 1196.74973101 606.29035196 1193.51948954 603.06207275 1190.28964233 C597.64701959 1184.87277352 592.22986913 1179.45800884 586.81152344 1174.04443359 C580.54295259 1167.78131795 574.27801086 1161.51458944 568.01491523 1155.24599898 C562.63405571 1149.8606075 557.25125752 1144.47715959 551.86682153 1139.09534395 C548.65205642 1135.88213939 545.43797453 1132.66825927 542.22563934 1129.45262527 C539.21063366 1126.43473921 536.1932081 1123.41929409 533.17386627 1120.40574646 C532.06438852 1119.29759482 530.955768 1118.18858418 529.84805298 1117.0786705 C528.34059057 1115.56849113 526.83010723 1114.061401 525.31878662 1112.55508423 C524.47299923 1111.70967386 523.62721184 1110.8642635 522.75579453 1109.99323463 C520.86029178 1108.03172159 520.86029178 1108.03172159 518.71484375 1107.078125 C518.44260986 1107.95090088 518.17037598 1108.82367676 517.88989258 1109.72290039 C516.77331854 1112.91115657 515.46489973 1115.76464919 513.9140625 1118.76171875 C513.07681641 1120.38255371 513.07681641 1120.38255371 512.22265625 1122.03613281 C511.62195312 1123.18436523 511.02125 1124.33259766 510.40234375 1125.515625 C510.09216309 1126.11048706 509.78198242 1126.70534912 509.46240234 1127.3182373 C498.99759076 1147.37133214 487.65592488 1166.86943178 475.71484375 1186.078125 C475.16248047 1186.96790039 474.61011719 1187.85767578 474.04101562 1188.77441406 C456.7767216 1216.48493085 438.16763531 1243.30801372 418.20654297 1269.14111328 C416.81668962 1270.94587539 415.43730349 1272.75797892 414.0625 1274.57421875 C409.43515591 1280.67361242 404.65247041 1286.60091629 399.67700195 1292.41723633 C396.9807086 1295.57046388 394.34754586 1298.75897139 391.77734375 1302.015625 C384.2834652 1311.45576649 376.32888568 1320.51977582 368.1640625 1329.3828125 C366.20531576 1331.53837112 364.28462153 1333.71546048 362.375 1335.9140625 C358.83127205 1339.9758849 355.16841686 1343.91224515 351.46484375 1347.828125 C350.25053719 1349.11386136 349.03701867 1350.40034237 347.82421875 1351.6875 C346.83675659 1352.73514526 346.83675659 1352.73514526 345.8293457 1353.80395508 C344.3915238 1355.35034822 342.96862465 1356.91072262 341.55932617 1358.4831543 C332.57718439 1368.47279014 323.03287506 1377.91243356 313.52563477 1387.39770508 C311.01782933 1389.89978283 308.51458567 1392.40636911 306.01262379 1394.91428852 C304.05743667 1396.87311448 302.09984308 1398.82952162 300.14154625 1400.78523827 C298.77554245 1402.15026815 297.41152072 1403.51728063 296.04756165 1404.88435364 C291.09335674 1409.82007325 286.01788814 1414.52185488 280.71484375 1419.078125 C279.39588543 1420.28443621 278.08338393 1421.49796872 276.78515625 1422.7265625 C276.14022217 1423.33483887 275.49528809 1423.94311523 274.83081055 1424.56982422 C274.1737915 1425.19131348 273.51677246 1425.81280273 272.83984375 1426.453125 C264.27526942 1434.51029355 255.65151635 1442.36242067 246.50390625 1449.7578125 C243.6397177 1452.14062482 240.89252792 1454.61656803 238.15234375 1457.140625 C233.97043583 1460.98442122 229.67962893 1464.59642665 225.21484375 1468.10546875 C222.6837887 1470.10262937 220.19844379 1472.14734021 217.71484375 1474.203125 C198.74102521 1489.73927136 179.04677179 1504.37126621 158.71484375 1518.078125 C157.80387939 1518.6956665 157.80387939 1518.6956665 156.87451172 1519.32568359 C115.78944613 1547.16034703 72.04755501 1570.6531392 27.99121094 1593.38330078 C21.78203046 1596.59523304 15.58944231 1599.83906505 9.39770508 1603.08447266 C7.68162855 1603.98202426 5.96304764 1604.87480793 4.24169922 1605.76220703 C2.49002003 1606.67443417 0.75005661 1607.60937851 -0.97998047 1608.56201172 C-1.85283691 1609.03010254 -2.72569336 1609.49819336 -3.625 1609.98046875 C-4.40093506 1610.40706787 -5.17687012 1610.83366699 -5.97631836 1611.27319336 C-9.61099059 1612.54035148 -12.11930098 1611.57014531 -15.57080078 1610.11352539 C-16.73264893 1609.52559204 -16.73264893 1609.52559204 -17.91796875 1608.92578125 C-19.23535034 1608.26376709 -19.23535034 1608.26376709 -20.5793457 1607.58837891 C-21.51351318 1607.11062012 -22.44768066 1606.63286133 -23.41015625 1606.140625 C-24.39008545 1605.64481934 -25.37001465 1605.14901367 -26.37963867 1604.63818359 C-34.0463116 1600.74563425 -41.66300028 1596.76104203 -49.2578125 1592.73046875 C-52.89874292 1590.80154252 -56.55443458 1588.90365049 -60.21875 1587.01953125 C-71.55560895 1581.18477358 -82.77317552 1575.20453081 -93.84204102 1568.87475586 C-99.28818297 1565.76180813 -104.76444581 1562.72502982 -110.29467773 1559.76416016 C-144.92495556 1541.19407225 -178.16635602 1519.42611679 -209.35498047 1495.55224609 C-211.37869542 1494.00668691 -213.4113039 1492.47338818 -215.4453125 1490.94140625 C-224.97231203 1483.74271991 -234.23790042 1476.26946542 -243.41357422 1468.62939453 C-245.99919185 1466.48629325 -248.6113996 1464.37740077 -251.22265625 1462.265625 C-255.53666328 1458.74544732 -259.66455425 1455.0564798 -263.77734375 1451.3046875 C-266.26106161 1449.09951743 -268.8131033 1447.02301496 -271.41015625 1444.953125 C-278.41045711 1439.28951525 -284.86138066 1433.05018733 -291.39404297 1426.86035156 C-293.99954332 1424.40487098 -296.63924381 1421.99004518 -299.28515625 1419.578125 C-312.30652489 1407.66944489 -325.02735706 1395.50006891 -337.48852539 1383.00512695 C-339.8733588 1380.61486393 -342.2635873 1378.23008742 -344.65429688 1375.84570312 C-346.19953997 1374.29980018 -347.74447334 1372.75358757 -349.2890625 1371.20703125 C-349.99019669 1370.5079213 -350.69133087 1369.80881134 -351.41371155 1369.08851624 C-355.35656953 1365.1270687 -359.11698533 1361.06158464 -362.76875305 1356.83033752 C-364.50267743 1354.82677804 -366.29278752 1352.88620124 -368.1171875 1350.96484375 C-368.76550537 1350.27986816 -369.41382324 1349.59489258 -370.08178711 1348.88916016 C-370.74702393 1348.18839355 -371.41226074 1347.48762695 -372.09765625 1346.765625 C-380.68566195 1337.67104842 -389.14214878 1328.57465807 -397 1318.83203125 C-399.3688165 1315.97730367 -401.83442042 1313.2437329 -404.34765625 1310.515625 C-408.09293941 1306.43717248 -411.62346338 1302.26740869 -415.04296875 1297.9140625 C-417.27032119 1295.0968885 -419.53829143 1292.31736458 -421.81518555 1289.5402832 C-433.29535246 1275.5168594 -444.12183888 1261.05654164 -454.66894531 1246.32226562 C-456.25408066 1244.12127407 -457.8561728 1241.93383269 -459.46484375 1239.75 C-468.22017022 1227.83127712 -476.30630744 1215.52682345 -484.28515625 1203.078125 C-485.26813489 1201.55723073 -486.25120114 1200.03639308 -487.234375 1198.515625 C-501.36498349 1176.52594069 -514.64082052 1153.92260506 -526.84179688 1130.80908203 C-528.31760505 1128.01672914 -529.80795076 1125.23250317 -531.30078125 1122.44921875 C-532.23368138 1120.70084536 -533.16600347 1118.95216338 -534.09765625 1117.203125 C-534.52506104 1116.40543701 -534.95246582 1115.60774902 -535.39282227 1114.78588867 C-538.28515625 1109.30935546 -538.28515625 1109.30935546 -538.28515625 1107.078125 C-545.16702141 1112.86009542 -551.50289491 1119.16021438 -557.84179688 1125.52124023 C-558.98560445 1126.66533039 -560.12963327 1127.80919939 -561.27386475 1128.9528656 C-564.35817963 1132.03689527 -567.43941604 1135.12398371 -570.52008247 1138.21165729 C-573.74803578 1141.44589016 -576.97884843 1144.67726421 -580.20935059 1147.90895081 C-586.31680744 1154.01950745 -592.42171214 1160.13260723 -598.5256896 1166.24663931 C-605.47901646 1173.2111694 -612.43520568 1180.17283757 -619.39162922 1187.13427436 C-633.69264446 1201.44572337 -647.99008597 1215.760738 -662.28515625 1230.078125 C-660.32933644 1233.37298002 -658.28041699 1236.56359059 -656.12548828 1239.73193359 C-642.45080117 1260.14839783 -638.30770418 1283.18128014 -642.91015625 1307.265625 C-647.83758318 1330.6542111 -661.49263041 1349.94623757 -681.40234375 1363.14453125 C-701.34114679 1375.27819083 -724.90976684 1379.48033067 -747.91015625 1374.890625 C-771.47999513 1368.79986135 -791.68555611 1355.24744173 -804.37158203 1334.28271484 C-816.2023798 1313.38030585 -819.73290056 1289.31965317 -813.82421875 1266.00732422 C-807.80749264 1244.47463866 -793.6463748 1225.0162219 -774.26171875 1213.65625 C-762.59882485 1207.10945063 -751.42522415 1203.19840718 -738.09765625 1201.703125 C-737.2974707 1201.60588135 -736.49728516 1201.5086377 -735.67285156 1201.40844727 C-731.35692524 1201.01244032 -727.53886848 1200.94427205 -723.31503487 1201.96890068 C-715.20201766 1203.80650075 -715.20201766 1203.80650075 -707.23665953 1202.17938852 C-702.1059315 1198.84435717 -698.02107218 1194.32168344 -693.83935547 1189.90283203 C-692.40259667 1188.46042412 -690.9614043 1187.02242102 -689.51617432 1185.58850098 C-685.62420642 1181.7022488 -681.79679853 1177.75766299 -677.97841787 1173.79926538 C-673.97072125 1169.6661423 -669.90592139 1165.58996352 -665.84695435 1161.5072937 C-658.17812842 1153.77641978 -650.56168542 1145.99601842 -642.96295464 1138.1963042 C-634.30605032 1129.31548639 -625.59196417 1120.49171061 -616.87271857 1111.67215943 C-598.94605735 1093.53670811 -581.09204292 1075.33114075 -563.28515625 1057.078125 C-564.23556895 1054.53590842 -565.18667912 1051.99395637 -566.13818359 1049.45214844 C-566.40465195 1048.73916595 -566.6711203 1048.02618347 -566.94566345 1047.29159546 C-568.473853 1043.21106179 -570.03055882 1039.14443399 -571.63671875 1035.09375 C-581.11768266 1011.12402368 -589.11998242 986.63323649 -596.53515625 961.953125 C-596.73005646 961.30557251 -596.92495667 960.65802002 -597.12576294 959.99084473 C-600.28515625 949.45558537 -600.28515625 949.45558537 -600.28515625 947.078125 C-679.15515625 947.078125 -758.02515625 947.078125 -839.28515625 947.078125 C-839.94515625 950.048125 -840.60515625 953.018125 -841.28515625 956.078125 C-842.42026565 958.97451918 -843.57079211 961.72242669 -844.91015625 964.515625 C-845.26062012 965.25280762 -845.61108398 965.98999023 -845.97216797 966.74951172 C-848.99638911 972.89376824 -852.70596207 977.98582872 -857.28515625 983.078125 C-857.74019531 983.67367187 -858.19523438 984.26921875 -858.6640625 984.8828125 C-870.56323504 1000.29845692 -890.86202069 1009.33909378 -909.5625 1012.66015625 C-935.26199342 1015.54561878 -958.82262847 1010.01253039 -979.28515625 994.078125 C-980.01992188 993.52640625 -980.7546875 992.9746875 -981.51171875 992.40625 C-997.91067363 979.20868472 -1007.98204669 957.80887513 -1010.96875 937.359375 C-1013.327092 912.90249501 -1007.59463944 890.49721566 -992.41015625 870.953125 C-991.05042624 869.31532638 -989.67594545 867.68963218 -988.28515625 866.078125 C-987.70378906 865.40007813 -987.12242187 864.72203125 -986.5234375 864.0234375 C-971.68037055 847.98906148 -949.83102978 839.21025629 -928.28515625 838.078125 C-927.51042969 838.036875 -926.73570312 837.995625 -925.9375 837.953125 C-902.57961798 837.34544026 -881.81842095 846.21862401 -864.28515625 861.078125 C-863.54652344 861.70203125 -862.80789063 862.3259375 -862.046875 862.96875 C-854.17529307 870.22511811 -847.69122247 880.35340927 -843.28515625 890.078125 C-843.28515625 890.738125 -843.28515625 891.398125 -843.28515625 892.078125 C-768.04515625 892.078125 -692.80515625 892.078125 -615.28515625 892.078125 C-617.59515625 882.178125 -619.90515625 872.278125 -622.28515625 862.078125 C-623.51965541 856.3532254 -624.73922771 850.6391278 -625.84765625 844.890625 C-625.98723755 844.17218414 -626.12681885 843.45374329 -626.27062988 842.71353149 C-632.17402805 812.08893269 -638.28515625 779.35553958 -638.28515625 748.078125 C-639.25615391 748.14818127 -640.22715157 748.21823753 -641.22757339 748.29041672 C-840.16488693 762.48251649 -840.16488693 762.48251649 -881.68945312 727.12304688 C-910.30149247 700.56158242 -919.41564365 669.0654179 -920.97000122 631.20243835 C-921.91975509 603.73670241 -919.66974017 576.31918748 -916.28515625 549.078125 C-916.96384262 548.87987122 -917.64252899 548.68161743 -918.34178162 548.47735596 C-919.23631546 548.21315857 -920.1308493 547.94896118 -921.05249023 547.67675781 C-921.93742661 547.41662903 -922.82236298 547.15650024 -923.7341156 546.88848877 C-933.25321116 543.86465214 -941.76985742 538.57247757 -949.28515625 532.078125 C-950.00960937 531.50835938 -950.7340625 530.93859375 -951.48046875 530.3515625 C-967.06052725 517.59437174 -977.11310726 497.16744503 -979.96875 477.4609375 C-982.29734558 452.56508844 -976.90775395 429.90022829 -961.41015625 409.953125 C-960.05042624 408.31532638 -958.67594545 406.68963218 -957.28515625 405.078125 C-956.70378906 404.40007812 -956.12242187 403.72203125 -955.5234375 403.0234375 C-940.44956982 386.73973663 -918.32037815 378.37010507 -896.51025391 377.15258789 C-870.62206124 376.26127413 -847.94960236 386.35507517 -829.09765625 403.765625 C-812.39433252 421.31647467 -804.70136036 444.59184957 -805.07421875 468.5390625 C-805.89997434 492.50636357 -816.61083932 514.06680432 -833.87890625 530.5546875 C-842.57172648 537.99471893 -852.2084007 544.05412799 -863.28515625 547.078125 C-864.14165655 559.77776921 -864.74877262 572.46557963 -865.07011604 585.19061089 C-865.22671017 591.10762993 -865.45677317 596.9989601 -865.88085938 602.90332031 C-867.63258189 628.17883822 -866.19246235 651.25897294 -849.36113739 671.49622345 C-832.87347625 689.66264356 -815.48322683 694.64431051 -791.64836442 696.00690424 C-773.61271842 696.83505782 -755.56503743 696.27580408 -737.53663647 695.54867637 C-727.02061017 695.13290463 -716.50459482 694.9678196 -705.98195052 694.81847405 C-684.40593711 694.50689587 -662.84751025 693.89693496 -641.28515625 693.078125 C-641.43896255 691.93081406 -641.59276886 690.78350311 -641.75123596 689.60142517 C-642.55434533 682.32787533 -642.64517324 675.01487548 -642.82788086 667.70532227 C-642.84863171 666.91726924 -642.86938255 666.12921622 -642.89076221 665.3172828 C-643.32655647 648.691024 -643.50003572 632.06654242 -643.58846664 615.43530321 C-643.60671191 612.10228091 -643.62763985 608.76927685 -643.64837801 605.43626928 C-643.71148644 595.24994616 -643.76579993 585.06358725 -643.81758499 574.87720108 C-643.84255693 569.97223295 -643.86888049 565.06727313 -643.89559871 560.16231424 C-644.35897814 474.90767647 -644.36859512 389.65310507 -644.28515625 194.078125 C-643.59360412 193.98553374 -642.90205198 193.89294249 -642.18954372 193.79754543 C-635.56530534 192.91012568 -628.94143907 192.01998009 -622.31794542 191.12701792 C-618.91545578 190.66839428 -615.51284657 190.21070641 -612.10990906 189.75541687 C-509.39904459 176.00833397 -409.63290003 149.0339844 -243.28515625 94.078125 C-242.32303223 93.7315686 -241.3609082 93.38501221 -240.36962891 93.0279541 C-176.10320979 69.85190928 -113.00621663 44.32558184 -51.22265625 15.140625 C-50.10262207 14.61168137 -50.10262207 14.61168137 -48.95996094 14.072052 C-41.64742124 10.6146189 -34.353298 7.12646889 -27.10546875 3.53515625 C-25.49877319 2.74516235 -25.49877319 2.74516235 -23.85961914 1.93920898 C-21.92295198 0.98366931 -19.9918909 0.01663581 -18.06811523 -0.96459961 C-17.23352783 -1.37589111 -16.39894043 -1.78718262 -15.5390625 -2.2109375 C-14.83080322 -2.56881348 -14.12254395 -2.92668945 -13.39282227 -3.29541016 C-8.5162987 -4.74486683 -4.3211177 -2.13399525 0 0 Z M-18.51171875 68.48828125 C-20.01667515 69.23081007 -21.52163971 69.97332235 -23.02661133 70.71582031 C-23.82161041 71.11079712 -24.6166095 71.50577393 -25.43569946 71.91271973 C-43.22153738 80.7386262 -61.17842384 89.12450592 -79.31542969 97.20037842 C-81.25031318 98.06259828 -83.18388656 98.92769544 -85.1171875 99.79345703 C-140.06316054 124.36895638 -196.4153828 145.42173884 -253.28515625 165.078125 C-254.24687744 165.41072327 -255.20859863 165.74332153 -256.19946289 166.08599854 C-305.27268011 183.02675908 -355.05379455 197.96740067 -405.28515625 211.078125 C-406.11245239 211.29472778 -406.93974854 211.51133057 -407.79211426 211.73449707 C-459.74310956 225.3194932 -512.06169978 235.62294775 -565.2734375 242.81640625 C-567.62198298 243.13601601 -569.9704939 243.45587984 -572.31896973 243.77600098 C-577.97397248 244.54628804 -583.62938484 245.31350322 -589.28515625 246.078125 C-589.33119334 297.41578459 -589.36630588 348.75344205 -589.38728691 400.09111832 C-589.38978755 406.18753595 -589.39237627 412.28395353 -589.39501953 418.38037109 C-589.39554415 419.59377514 -589.39606877 420.80717918 -589.39660929 422.05735305 C-589.40525094 441.56190175 -589.42098544 461.06643834 -589.43946184 480.57097992 C-589.45833649 500.66740944 -589.46930952 520.76383273 -589.47333324 540.86027074 C-589.47580274 552.11312435 -589.48166617 563.36595276 -589.49661636 574.6187973 C-589.72286067 712.26896823 -589.72286067 712.26896823 -514.28515625 1038.078125 C-513.75124268 1039.30716553 -513.75124268 1039.30716553 -513.20654297 1040.56103516 C-498.70236499 1073.86467766 -481.86066995 1105.87210826 -463.28515625 1137.078125 C-462.75019531 1137.98498047 -462.21523438 1138.89183594 -461.6640625 1139.82617188 C-444.0170048 1169.70535881 -424.29616164 1198.47089347 -403.28515625 1226.078125 C-402.83897949 1226.66609863 -402.39280273 1227.25407227 -401.93310547 1227.85986328 C-396.20750677 1235.39782021 -390.31278983 1242.77870348 -384.28515625 1250.078125 C-382.84756323 1251.84888282 -381.41006458 1253.61971726 -379.97265625 1255.390625 C-372.31090291 1264.75053309 -364.41437802 1273.90662084 -356.28515625 1282.86328125 C-354.48912096 1284.85225002 -352.72562322 1286.86375694 -350.97265625 1288.890625 C-346.49468828 1294.02893848 -341.84572554 1299.0122587 -337.20263672 1304.00097656 C-335.78580626 1305.53578603 -334.38024945 1307.08102022 -332.98095703 1308.63183594 C-323.80298043 1318.76187461 -314.12272706 1328.39394059 -304.44775391 1338.04589844 C-302.00835368 1340.47956203 -299.57352856 1342.91774609 -297.13997269 1345.35725212 C-294.77935045 1347.72238472 -292.41489587 1350.08367075 -290.05078125 1352.4453125 C-289.18914368 1353.3089743 -288.3275061 1354.17263611 -287.4397583 1355.06246948 C-283.09798965 1359.38757956 -278.69873227 1363.57719386 -274.04049683 1367.56089783 C-270.9897211 1370.1978333 -268.08776773 1372.99370795 -265.16015625 1375.765625 C-259.63690537 1380.96050022 -253.99904847 1385.98054011 -248.21337891 1390.88061523 C-244.76276151 1393.8036589 -241.37613429 1396.77902648 -238.03515625 1399.828125 C-234.08572302 1403.41031892 -230.00706806 1406.77008787 -225.8203125 1410.0703125 C-223.28015947 1412.08208239 -220.78155762 1414.13740051 -218.28515625 1416.203125 C-210.40847776 1422.65270865 -202.36917266 1428.89120689 -194.28515625 1435.078125 C-193.56392578 1435.63097168 -192.84269531 1436.18381836 -192.09960938 1436.75341797 C-156.12631346 1464.17608771 -116.92694306 1487.21005415 -77.12304688 1508.54589844 C-74.41143851 1510.00994301 -71.71326594 1511.49555579 -69.01953125 1512.9921875 C-56.6260041 1519.86499324 -44.04035557 1526.28588968 -31.3359375 1532.55981445 C-30.67671295 1532.8860228 -30.0174884 1533.21223114 -29.33828735 1533.54832458 C-28.05505591 1534.18306381 -26.77103582 1534.81621151 -25.48617554 1535.44764709 C-21.25703896 1537.54178919 -17.18924784 1539.81463045 -13.20825195 1542.34790039 C-10.00527443 1543.56411288 -7.19475919 1542.46217786 -4.12355042 1541.16545105 C-3.40158981 1540.79527359 -2.67962921 1540.42509613 -1.93579102 1540.04370117 C-1.10624405 1539.62203171 -0.27669708 1539.20036224 0.57798767 1538.76591492 C1.46748611 1538.30562393 2.35698456 1537.84533295 3.2734375 1537.37109375 C4.6827932 1536.65014275 4.6827932 1536.65014275 6.12062073 1535.91462708 C8.11844907 1534.89106689 10.11474539 1533.86451177 12.10961914 1532.83520508 C15.07940686 1531.30324927 18.05382692 1529.78064967 21.02929688 1528.25976562 C33.51888379 1521.8572985 45.8745341 1515.23370122 58.17147827 1508.46955872 C61.78420024 1506.49309753 65.41222867 1504.54549473 69.04025269 1502.5973053 C94.22901559 1489.06307621 119.1682916 1474.31315607 142.71484375 1458.078125 C143.42930664 1457.58763672 144.14376953 1457.09714844 144.87988281 1456.59179688 C156.76023116 1448.42074121 168.35231245 1439.95368792 179.71484375 1431.078125 C180.34648438 1430.58683105 180.978125 1430.09553711 181.62890625 1429.58935547 C188.51396155 1424.23291208 195.33399783 1418.80563293 202.06640625 1413.2578125 C203.86711212 1411.77581563 205.67468946 1410.30213706 207.48828125 1408.8359375 C212.866494 1404.48214623 218.06533786 1399.99632482 223.17578125 1395.33203125 C225.8337984 1392.97252987 228.56876669 1390.74088385 231.33984375 1388.515625 C235.3391267 1385.28132444 239.03085964 1381.92541504 242.5703125 1378.1953125 C244.46227072 1376.32747761 246.39924903 1374.59204457 248.40771484 1372.85229492 C262.45808988 1360.59215648 275.59947028 1347.35409186 288.76342773 1334.15991211 C291.29452099 1331.62306029 293.83016625 1329.09081277 296.36710453 1326.55980778 C298.35508693 1324.5754606 300.34065529 1322.58871157 302.3255291 1320.60125542 C303.70608051 1319.21973168 305.08861159 1317.8401871 306.47120667 1316.46070862 C310.90102004 1312.01444365 315.18828597 1307.50849009 319.27885437 1302.74769592 C320.9201213 1300.83945651 322.62302528 1299.00175988 324.36328125 1297.18359375 C324.97147705 1296.54381592 325.57967285 1295.90403809 326.20629883 1295.24487305 C326.82786865 1294.59172119 327.44943848 1293.93856934 328.08984375 1293.265625 C333.17547994 1287.8856393 338.00562911 1282.43308712 342.6171875 1276.640625 C344.84702236 1273.91665541 347.19438493 1271.34477315 349.58984375 1268.765625 C353.85462373 1264.13114273 357.76205188 1259.30938545 361.61328125 1254.33398438 C364.52703576 1250.57311304 367.51504439 1246.89766955 370.58984375 1243.265625 C386.00954741 1224.87403532 399.80788881 1205.12486088 413.24072266 1185.2578125 C414.56527618 1183.29928089 415.8954541 1181.34470285 417.2265625 1179.390625 C430.25106253 1160.16844408 442.23843248 1140.25544447 453.71484375 1120.078125 C454.33439941 1118.98999512 454.95395508 1117.90186523 455.59228516 1116.78076172 C487.09899668 1061.1820941 510.71780249 1003.36399703 528.71484375 942.078125 C528.9428064 941.30229065 529.17076904 940.5264563 529.40563965 939.72711182 C550.21520697 868.67817312 563.12321632 797.4160881 567.40234375 723.515625 C567.46319153 722.47197784 567.52403931 721.42833069 567.58673096 720.35305786 C569.13182849 693.41802684 569.84512698 666.47220806 570.03125 639.49609375 C570.04678942 637.4898965 570.06233335 635.48369928 570.07806551 633.47750354 C570.14163814 625.318737 570.19585152 617.159923 570.24727249 609.00107193 C570.26722193 605.8365342 570.28784667 602.67200207 570.30912399 599.50747299 C570.86104276 517.41680415 570.79741526 435.32443144 570.71484375 246.078125 C570.02915786 245.98442344 569.34347197 245.89072187 568.63700771 245.79418087 C562.08550854 244.89852121 555.53428648 244.00086257 548.98334783 243.10111183 C545.61771899 242.63892096 542.25199777 242.17742915 538.8860321 241.71769714 C519.85631991 239.11666641 500.83948628 236.51001742 481.97070312 232.89404297 C481.27855713 232.76149109 480.58641113 232.62893921 479.87329102 232.49237061 C479.16100342 232.35566956 478.44871582 232.21896851 477.71484375 232.078125 C476.96904053 231.9362677 476.2232373 231.7944104 475.45483398 231.64825439 C404.73769353 218.16342641 335.15338436 198.19879169 266.71484375 176.078125 C265.79417114 175.78097595 264.87349854 175.4838269 263.92492676 175.17767334 C176.16172317 146.81765827 90.46548173 112.79366949 7.46875 72.5703125 C6.38803223 72.04816162 5.30731445 71.52601074 4.19384766 70.98803711 C2.23360079 70.03906867 0.27601815 69.08456713 -1.67822266 68.12329102 C-2.5191748 67.71522217 -3.36012695 67.30715332 -4.2265625 66.88671875 C-4.94529541 66.53407959 -5.66402832 66.18144043 -6.40454102 65.81811523 C-11.01428643 64.00425851 -14.43980684 66.44299621 -18.51171875 68.48828125 Z M-915.55078125 440.08984375 C-922.74632789 447.72511824 -926.69503567 456.26004006 -926.49609375 466.84375 C-925.65995552 475.70062163 -921.86799019 483.65297997 -915.46875 489.83203125 C-907.70579787 496.08944115 -899.56842072 498.86832508 -889.59765625 498.52734375 C-881.14999168 497.38172886 -872.8737058 493.63859621 -867.28515625 487.078125 C-861.53981472 479.14662103 -858.13045553 471.06720265 -859.28515625 461.078125 C-861.1140482 451.59555078 -865.69395086 443.40764253 -873.3046875 437.359375 C-886.71392102 428.68436791 -903.40613813 429.30623822 -915.55078125 440.08984375 Z M848.96484375 441.265625 C841.87065078 448.78876917 839.26407235 457.67450856 839.375 467.78125 C840.30395351 476.79316682 844.762145 485.26478843 851.71484375 491.078125 C861.02794535 497.11512845 868.60469761 499.17314494 879.71484375 498.078125 C889.76957607 495.21721533 896.79740316 490.51871509 902.38671875 481.6640625 C906.92740961 472.82307029 907.66200202 463.98264296 904.9921875 454.515625 C901.66994382 445.08102822 895.60269584 438.56767657 886.71484375 434.078125 C873.26315011 428.47325265 859.57895236 431.56652575 848.96484375 441.265625 Z M-947.328125 901.93359375 C-954.15430372 909.22552454 -957.65526395 917.82350304 -957.50390625 927.83203125 C-956.83609871 934.68898371 -954.47239127 940.62203088 -950.28515625 946.078125 C-949.74890625 946.903125 -949.21265625 947.728125 -948.66015625 948.578125 C-943.09254774 954.43876554 -935.30688776 958.45856072 -927.27734375 959.44921875 C-917.81602441 959.65077568 -909.59767481 957.55882066 -901.91015625 951.828125 C-894.98215021 944.57021391 -890.402045 936.26432126 -889.91015625 926.078125 C-890.37681471 916.01453376 -894.75234435 907.14761686 -902.03515625 900.328125 C-916.03079029 888.84856 -934.00803741 889.83599986 -947.328125 901.93359375 Z M881.515625 900.8671875 C875.08022615 906.83866666 871.36514985 913.90950714 870.44140625 922.671875 C870.09490703 932.58708347 872.70367376 940.78508348 879.02734375 948.515625 C886.06598612 955.85963146 893.7549968 959.05657835 903.90234375 959.515625 C913.04725714 959.37850404 920.88269671 956.12625517 927.71484375 950.078125 C934.08265823 942.90458706 937.47615654 935.07269806 937.8046875 925.4453125 C937.1490768 914.72019392 932.63502689 906.23457619 924.71484375 899.078125 C911.43486049 888.76601679 894.05938334 890.66285123 881.515625 900.8671875 Z M-755.28515625 1268.078125 C-760.64348514 1276.75726696 -763.77374258 1285.25673922 -761.82421875 1295.5 C-759.18446881 1305.49999387 -754.05931306 1312.62059946 -745.28515625 1318.078125 C-737.33686118 1322.51082802 -728.96189135 1323.40896071 -719.97265625 1321.6171875 C-710.39418276 1318.33424296 -702.99190893 1312.11368695 -698.2890625 1303.1875 C-694.40901263 1294.64767732 -694.35108656 1286.40443047 -697.24609375 1277.59765625 C-700.93877086 1268.64360837 -707.0393604 1261.85882601 -715.78515625 1257.703125 C-730.35231934 1252.41808717 -745.3862882 1256.38461484 -755.28515625 1268.078125 Z M681.71484375 1269.078125 C675.82444188 1276.79932745 674.92269528 1285.67293369 675.71484375 1295.078125 C677.65450364 1304.4015322 683.84145001 1312.20178553 691.4453125 1317.63671875 C699.13093348 1322.51794791 706.6728229 1323.12519884 715.71484375 1322.078125 C725.77352851 1319.23596175 732.79860172 1314.51681633 738.38671875 1305.6640625 C742.92740961 1296.82307029 743.66200202 1287.98264296 740.9921875 1278.515625 C737.71306476 1269.20348424 731.62235622 1262.37371045 722.71484375 1258.078125 C706.83062755 1251.76886989 692.7470492 1257.17708286 681.71484375 1269.078125 Z " fill="#888888" transform="translate(1011.28515625,3.921875)"/>
<path d="M0 0 C142.89 0 285.78 0 433 0 C433 258.72 433 517.44 433 784 C398.35 784 363.7 784 328 784 C328 673.45 328 562.9 328 449 C254.08 449 180.16 449 104 449 C104 559.55 104 670.1 104 784 C69.68 784 35.36 784 0 784 C0 525.28 0 266.56 0 0 Z M104 113 C104 186.26 104 259.52 104 335 C177.92 335 251.84 335 328 335 C328 261.74 328 188.48 328 113 C254.08 113 180.16 113 104 113 Z " fill="#888888" transform="translate(2315,415)"/>
<path d="M0 0 C142.23 0 284.46 0 431 0 C431 148.17 431 296.34 431 449 C323.09 449 215.18 449 104 449 C104 559.55 104 670.1 104 784 C69.68 784 35.36 784 0 784 C0 525.28 0 266.56 0 0 Z M104 113 C104 186.26 104 259.52 104 335 C177.59 335 251.18 335 327 335 C327 261.74 327 188.48 327 113 C253.41 113 179.82 113 104 113 Z " fill="#888888" transform="translate(2838,415)"/>
<path d="M0 0 C10.25535779 8.65151236 15.93049217 19.10959695 19.22265625 32.00390625 C20.49166899 47.54931228 18.21828587 61.65015063 8.08203125 73.97265625 C5.92472831 76.38775011 3.71735911 78.73320256 1.47265625 81.06640625 C6.82981073 97.38810762 12.45381683 113.59612596 18.28515625 129.75390625 C19.10388703 132.02902977 19.92232117 134.30426005 20.74047852 136.57958984 C22.44404358 141.3166425 24.14887724 146.05323585 25.85449219 150.78955078 C28.50739376 158.15937048 31.15132186 165.53238973 33.79296875 172.90625 C34.22451767 174.11083359 34.65606659 175.31541718 35.10069275 176.5565033 C35.95448595 178.93988692 36.80824123 181.32328412 37.66195679 183.70669556 C39.6386607 189.22523763 41.61584504 194.74360703 43.59375 200.26171875 C43.92839264 201.19600204 44.26303528 202.13028534 44.6078186 203.09288025 C44.92729462 203.98407059 45.24677063 204.87526093 45.57592773 205.79345703 C45.86582346 206.61244424 46.15571919 207.43143146 46.45439963 208.27523646 C47.10876133 210.06892438 47.79330464 211.85204154 48.51479442 213.61979663 C51.09642517 220.10276755 52.05017481 225.58153826 51.98719406 232.52816105 C51.99420621 233.52555598 52.00121836 234.5229509 52.008443 235.55056992 C52.02698367 238.87753182 52.01724775 242.20378679 52.00750732 245.53077698 C52.01498423 247.94615765 52.02418884 250.36153348 52.03496861 252.77690166 C52.05431153 258.02053699 52.06126529 263.26403686 52.05714417 268.50769997 C52.05103088 276.30526517 52.06772096 284.10266768 52.08864267 291.9002012 C52.12728008 306.63700463 52.13857739 321.3737523 52.1408709 336.11060042 C52.14271024 347.48945815 52.15094965 358.86829406 52.1636734 370.2471447 C52.16726362 373.52441481 52.17082288 376.80168496 52.17437291 380.07895511 C52.1756992 381.30109883 52.1756992 381.30109883 52.17705228 382.54793232 C52.20165978 405.4570579 52.21745542 428.36617591 52.21567917 451.27531528 C52.2155857 452.57025762 52.2155857 452.57025762 52.21549034 453.89136041 C52.21515791 458.26676303 52.21476175 462.64216563 52.21435151 467.01756824 C52.21427172 467.88652023 52.21419194 468.75547222 52.21410974 469.6507561 C52.213948 471.40798578 52.2137808 473.16521546 52.21360818 474.92244514 C52.21115609 502.27414671 52.24120701 529.62565007 52.29589844 556.97729492 C52.35733422 587.71442367 52.39176402 618.45142219 52.38804555 649.18861622 C52.38774703 652.465572 52.3875522 655.74252777 52.38742828 659.01948357 C52.38738167 659.82634086 52.38733505 660.63319816 52.38728702 661.46450568 C52.38716393 674.44897998 52.41270663 687.43328212 52.44715734 700.41770523 C52.4810559 713.46366943 52.48502908 726.50938165 52.45872006 739.55536551 C52.4439337 747.30540899 52.4512777 755.05468721 52.49048942 762.80464967 C52.51729336 768.59115821 52.50228861 774.37695617 52.47099653 780.16341435 C52.46483301 782.5044373 52.47221011 784.84554288 52.49443683 787.18646843 C52.66893085 806.86628535 52.66893085 806.86628535 47.62031937 813.26888943 C46.27107713 814.57017733 44.89023252 815.83991437 43.47265625 817.06640625 C42.33168302 818.4124861 41.21041475 819.77585119 40.12109375 821.1640625 C39.0306621 822.4862664 37.93950106 823.80786906 36.84765625 825.12890625 C35.63279867 826.60155109 34.41795534 828.07420769 33.203125 829.546875 C32.58872559 830.29114746 31.97432617 831.03541992 31.34130859 831.80224609 C29.48435057 834.05223678 27.62860158 836.3032175 25.7734375 838.5546875 C25.17249268 839.28389404 24.57154785 840.01310059 23.95239258 840.7644043 C22.76746976 842.20371185 21.5836928 843.64396358 20.40112305 845.08520508 C17.83425034 848.21214939 15.2596203 851.32881775 12.62890625 854.40234375 C11.406875 855.84480469 11.406875 855.84480469 10.16015625 857.31640625 C9.46277344 858.1259375 8.76539063 858.93546875 8.046875 859.76953125 C6.29100053 862.33145232 5.60195555 863.96322315 5.47265625 867.06640625 C6.50233679 869.06785755 6.50233679 869.06785755 8.16015625 870.81640625 C17.02064029 881.77380298 18.84147981 895.34804984 17.47265625 909.06640625 C14.58802351 923.45838473 7.15117648 935.9888319 -5.02734375 944.44140625 C-18.30530316 952.6018188 -32.29821471 955.325056 -47.71484375 951.94140625 C-57.40408575 949.18042384 -65.42797646 944.15010165 -72.52734375 937.06640625 C-73.05972656 936.545625 -73.59210938 936.02484375 -74.140625 935.48828125 C-82.90968683 926.15274256 -86.92278942 914.03473584 -86.90234375 901.44140625 C-86.90290771 900.56492432 -86.90347168 899.68844238 -86.90405273 898.78540039 C-86.77807191 891.28368968 -85.32086232 885.05581215 -82.52734375 878.06640625 C-82.19734375 877.07640625 -81.86734375 876.08640625 -81.52734375 875.06640625 C-82.43769394 873.27612691 -82.43769394 873.27612691 -83.921875 871.51171875 C-84.46005859 870.82142578 -84.99824219 870.13113281 -85.55273438 869.41992188 C-86.14248047 868.68451172 -86.73222656 867.94910156 -87.33984375 867.19140625 C-87.93861328 866.42763672 -88.53738281 865.66386719 -89.15429688 864.87695312 C-90.37190735 863.32407744 -91.5934164 861.77425054 -92.81884766 860.22753906 C-95.08409387 857.36215474 -97.3064996 854.4663515 -99.52734375 851.56640625 C-100.7184375 850.01953125 -100.7184375 850.01953125 -101.93359375 848.44140625 C-105.53346014 843.76157995 -109.11621288 839.06864591 -112.69995117 834.37646484 C-115.2247886 831.07196956 -117.75259402 827.7700255 -120.296875 824.48046875 C-125.49527807 817.75859852 -130.57382023 810.97089853 -135.52734375 804.06640625 C-136.11 804.33195312 -136.69265625 804.5975 -137.29296875 804.87109375 C-151.31265147 810.91101995 -164.96098069 811.46730743 -179.52734375 807.06640625 C-193.54959854 800.95097355 -203.18959607 792.20988078 -209.68359375 778.2421875 C-215.1804755 764.06735818 -214.95561891 750.01983453 -209.2734375 735.96484375 C-202.41338761 721.19797887 -191.69379068 712.62338528 -176.60546875 707.01171875 C-166.76648184 703.99010094 -157.22972003 704.06651504 -147.58984375 707.50390625 C-144.10980746 708.55523556 -144.10980746 708.55523556 -140.52734375 708.06640625 C-135.39459359 704.76448015 -131.66687555 699.69288873 -127.96777344 694.921875 C-126.30570427 692.78090454 -124.53221266 690.76389951 -122.71484375 688.75390625 C-122.20050781 688.15707031 -121.68617188 687.56023438 -121.15625 686.9453125 C-116.91762908 682.05615983 -112.53575111 677.29048151 -108.19921875 672.48828125 C-104.80389437 668.72339775 -101.41676033 664.95447074 -98.08984375 661.12890625 C-95.2791185 657.90081113 -92.41154475 654.72902182 -89.52734375 651.56640625 C-86.03408472 647.73491941 -82.54473215 643.9060104 -79.20703125 639.9375 C-77.52734375 638.06640625 -77.52734375 638.06640625 -75.47265625 636.2890625 C-73.28320967 634.2742605 -71.84325687 632.74616311 -70.52734375 630.06640625 C-70.53586654 626.38882133 -71.06427533 623.12167995 -71.84375 619.53125 C-72.54900652 615.95660694 -72.6338058 612.70000245 -72.52734375 609.06640625 C-73.38487747 608.82857422 -73.38487747 608.82857422 -74.25973511 608.5859375 C-81.50889443 606.50120018 -88.4667997 603.85068351 -95.47265625 601.06640625 C-97.32147874 600.33755759 -99.17030139 599.60870931 -101.01913261 598.87988281 C-103.58279558 597.86805335 -106.14495252 596.85243916 -108.70715332 595.83691406 C-112.57315336 594.30555591 -116.44121264 592.77940883 -120.30914116 591.25292969 C-123.31984552 590.06471511 -126.33008271 588.87535328 -129.33938599 587.68359375 C-135.049996 585.42435609 -140.7680478 583.19863456 -146.52734375 581.06640625 C-146.92824219 581.96101562 -147.32914063 582.855625 -147.7421875 583.77734375 C-154.55257021 598.47268154 -163.89807494 608.57479124 -179.33984375 614.44140625 C-192.0274185 618.85614482 -206.89682254 618.46852319 -219.16796875 612.859375 C-221.34582431 611.6658813 -223.43678229 610.40567219 -225.52734375 609.06640625 C-228.00234375 607.58140625 -228.00234375 607.58140625 -230.52734375 606.06640625 C-243.39734375 618.93640625 -256.26734375 631.80640625 -269.52734375 645.06640625 C-267.75359181 649.04253939 -267.75359181 649.04253939 -265.15234375 651.75390625 C-257.88464577 660.18271575 -256.86523618 670.40505753 -257.35693359 681.06738281 C-258.13602429 690.20663013 -263.08880205 697.78194931 -269.52734375 704.06640625 C-279.39967369 711.32414652 -289.61628215 714.26463477 -301.7890625 712.79296875 C-310.99583373 711.08979641 -319.80073254 706.12956579 -325.37890625 698.55078125 C-331.99853967 688.58046919 -333.9481929 678.93690211 -332.52734375 667.06640625 C-329.63838883 655.75563187 -322.46105684 647.03734448 -312.52734375 641.06640625 C-310.71163844 640.40037337 -308.88760533 639.75680741 -307.05786133 639.13037109 C-299.06729804 635.85064022 -293.68132647 630.25512139 -287.7265625 624.23046875 C-286.55398561 623.06516364 -285.38044947 621.90082305 -284.20600891 620.73739624 C-281.76671312 618.31282694 -279.34058215 615.87599649 -276.9230957 613.4296875 C-273.82572967 610.2978244 -270.69545301 607.20135524 -267.554492 604.11329079 C-265.1321075 601.72368696 -262.72883355 599.31556881 -260.3308506 596.9015007 C-259.18340605 595.75124021 -258.02988525 594.6070074 -256.87021446 593.46907425 C-255.25631245 591.88022044 -253.67015654 590.26796285 -252.08862305 588.64697266 C-251.18105759 587.73605865 -250.27349213 586.82514465 -249.33842468 585.8866272 C-247.17106269 583.11515149 -247.17106269 583.11515149 -247.71809387 579.44125366 C-247.98514633 578.32755402 -248.25219879 577.21385437 -248.52734375 576.06640625 C-249.50741487 566.9982735 -249.63687898 558.95570146 -247.52734375 550.06640625 C-253.86237004 545.69782324 -260.36446156 541.80019725 -267.08984375 538.06640625 C-275.69699083 533.24558308 -284.25761314 528.35268474 -292.77734375 523.37890625 C-293.80674072 522.77884766 -294.8361377 522.17878906 -295.89672852 521.56054688 C-303.12839622 517.33237127 -303.12839622 517.33237127 -306.52734375 515.06640625 C-311.18672539 515.50179109 -314.77831055 517.62922599 -318.83203125 519.8125 C-331.66483402 525.78254303 -346.43639493 525.06536777 -359.52734375 520.44140625 C-373.80853412 514.29822754 -383.70229541 503.27655603 -389.52734375 489.06640625 C-393.48455065 477.85883738 -393.32844296 462.70927423 -388.84765625 451.6953125 C-382.35263895 438.76292599 -373.98242741 428.93144272 -360.52734375 423.06640625 C-359.18222847 422.69824411 -357.82851771 422.35841959 -356.46484375 422.06640625 C-355.49546875 421.73640625 -354.52609375 421.40640625 -353.52734375 421.06640625 C-352.79900025 419.08803313 -352.14437141 417.08227363 -351.52734375 415.06640625 C-350.42319498 412.75151669 -349.29468167 410.48052857 -348.10546875 408.2109375 C-347.76892776 407.56014725 -347.43238678 406.90935699 -347.08564758 406.23884583 C-345.98698624 404.11670767 -344.88223498 401.99780648 -343.77734375 399.87890625 C-343.0086448 398.39717409 -342.24033874 396.91523804 -341.47241211 395.43310547 C-339.91150909 392.42212337 -338.34817944 389.4124215 -336.78271484 386.40380859 C-334.72948048 382.45712677 -332.68352673 378.50672554 -330.640625 374.5546875 C-323.99051306 361.69648673 -317.29265126 348.86437275 -310.52734375 336.06640625 C-310.93001465 335.53168701 -311.33268555 334.99696777 -311.74755859 334.44604492 C-312.28074707 333.73681885 -312.81393555 333.02759277 -313.36328125 332.296875 C-313.88970215 331.59715576 -314.41612305 330.89743652 -314.95849609 330.17651367 C-324.24216441 317.68993644 -327.20024211 304.45354926 -325.52734375 289.06640625 C-322.8077444 275.20662986 -315.8050026 262.83581698 -304.02734375 254.75390625 C-294.98565365 249.1455727 -286.75986476 245.90998906 -276.08984375 245.44140625 C-275.35830078 245.40273438 -274.62675781 245.3640625 -273.87304688 245.32421875 C-272.09150843 245.23106641 -270.30946253 245.14770339 -268.52734375 245.06640625 C-266.10687448 237.71077521 -263.69039144 230.35384244 -261.27636719 222.99609375 C-260.45913715 220.50581001 -259.64054797 218.01598556 -258.82128906 215.52636719 C-256.43029248 208.2593825 -254.0631336 200.98521467 -251.71429443 193.70449829 C-250.51717992 190.03525336 -249.28415253 186.37942661 -248.04736328 182.72338867 C-247.28194316 180.3966288 -246.51741934 178.06957385 -245.75390625 175.7421875 C-245.38495239 174.68125885 -245.01599854 173.6203302 -244.63586426 172.5272522 C-242.55609186 166.08776498 -242.55609186 166.08776498 -243.62866211 159.56640625 C-245.37004776 156.19149779 -247.38759144 153.19764775 -249.52734375 150.06640625 C-254.10023664 136.19593029 -251.84508753 121.27713253 -245.46484375 108.44140625 C-238.48840419 96.23993455 -227.83346652 87.6193653 -214.46484375 83.19140625 C-200.91119186 79.71666428 -187.20933489 81.03378736 -174.52734375 87.06640625 C-172.13208234 88.62220688 -169.84388346 90.2285148 -167.59765625 91.9921875 C-164.7943121 93.44675286 -163.54155511 92.89647411 -160.52734375 92.06640625 C-158.04958468 90.86983205 -158.04958468 90.86983205 -155.5625 89.328125 C-154.60899658 88.7614209 -153.65549316 88.1947168 -152.6730957 87.61083984 C-151.65562256 86.99805176 -150.63814941 86.38526367 -149.58984375 85.75390625 C-141.58088799 81.00205934 -133.53735079 76.36051361 -125.33984375 71.94140625 C-116.15701077 66.98344113 -107.07779515 61.86221171 -98.03125 56.66015625 C-97.26570801 56.22058594 -96.50016602 55.78101563 -95.71142578 55.328125 C-94.28622313 54.50480203 -92.86509327 53.67437637 -91.44873047 52.8359375 C-86.73688322 50.06640625 -86.73688322 50.06640625 -84.52734375 50.06640625 C-84.85734375 49.07640625 -85.18734375 48.08640625 -85.52734375 47.06640625 C-86.67396995 32.97613425 -82.96105125 19.64468291 -74.453125 8.30078125 C-69.7535252 2.82201569 -64.79287392 -1.36930289 -58.52734375 -4.93359375 C-57.85832031 -5.32289063 -57.18929688 -5.7121875 -56.5 -6.11328125 C-38.68319257 -15.78022231 -15.67729681 -11.99422245 0 0 Z M-80.50390625 75.671875 C-81.55529785 76.23656494 -82.60668945 76.80125488 -83.68994141 77.38305664 C-84.83253418 78.00043701 -85.97512695 78.61781738 -87.15234375 79.25390625 C-88.02835236 79.72617142 -88.02835236 79.72617142 -88.92205811 80.20797729 C-97.99031826 85.09886503 -106.98597689 90.10689234 -115.93286133 95.21704102 C-120.9962981 98.10066274 -126.08627923 100.91938002 -131.2265625 103.6640625 C-132.33112793 104.25437256 -133.43569336 104.84468262 -134.57373047 105.45288086 C-136.70855979 106.58923305 -138.84678491 107.71923453 -140.98876953 108.84204102 C-141.94638184 109.35178467 -142.90399414 109.86152832 -143.890625 110.38671875 C-144.73923096 110.83289551 -145.58783691 111.27907227 -146.4621582 111.73876953 C-148.80585131 113.05090036 -148.80585131 113.05090036 -150.52734375 116.06640625 C-149.90715174 118.08130236 -149.23132966 120.07923532 -148.52734375 122.06640625 C-148.21349245 124.67546573 -147.97871103 127.20065176 -147.83984375 129.81640625 C-147.75347656 131.13125 -147.66710937 132.44609375 -147.578125 133.80078125 C-147.44294379 136.2153778 -147.51869779 138.03349335 -148.13623047 140.38427734 C-148.8296622 143.25034714 -149.04856604 145.14692677 -148.52734375 148.06640625 C-145.2581602 152.70568516 -141.20552696 156.38033874 -137.02734375 160.19140625 C-135.92322263 161.23166599 -134.821632 162.27461844 -133.72265625 163.3203125 C-132.11157296 164.85283669 -130.49934723 166.38366662 -128.87767029 167.90498352 C-125.54872744 171.03756153 -122.50598248 174.27223645 -119.55712891 177.75683594 C-114.89064666 183.06654511 -109.89733369 188.07970086 -104.9387207 193.11499023 C-103.61385202 194.46673319 -102.29620393 195.8255882 -100.9855957 197.19116211 C-99.0772541 199.1782569 -97.14720447 201.14171653 -95.2109375 203.1015625 C-94.62952499 203.71596695 -94.04811249 204.3303714 -93.44908142 204.96339417 C-91.86529567 206.53951323 -90.43062974 207.89568037 -88.52734375 209.06640625 C-85.06357819 209.00122012 -82.77461069 208.15397996 -79.52734375 207.00390625 C-70.67794504 204.41383833 -59.84552668 205.10029663 -51.52734375 209.06640625 C-41.50780002 214.92144826 -35.48199556 222.24314867 -31.52734375 233.06640625 C-28.80593341 244.50394203 -30.6026945 255.03330221 -36.15234375 265.25390625 C-41.54908597 273.74211563 -50.18885131 279.2588958 -59.90625 281.65234375 C-71.09894077 283.42048864 -81.18569741 282.1267407 -90.71484375 275.94140625 C-99.35065833 269.44759906 -104.39643997 261.70816526 -106.52734375 251.06640625 C-107.15939178 243.62584088 -106.78631049 237.14450202 -104.52734375 230.06640625 C-104.77606828 225.18117264 -107.34787493 222.6976683 -110.68969727 219.44995117 C-111.22628967 218.91277466 -111.76288208 218.37559814 -112.31573486 217.82214355 C-114.08658834 216.05407034 -115.87117269 214.30057674 -117.65625 212.546875 C-118.88880482 211.32178273 -120.12047778 210.09580264 -121.3513031 208.86897278 C-124.58941713 205.64611373 -127.83936382 202.43544839 -131.09191895 199.22717285 C-134.41030465 195.94974235 -137.71736223 192.66092525 -141.02539062 189.37304688 C-147.51500305 182.92630296 -154.0171725 176.49238376 -160.52734375 170.06640625 C-161.06392105 170.4757843 -161.60049835 170.88516235 -162.15333557 171.3069458 C-162.86400681 171.84535095 -163.57467804 172.3837561 -164.30688477 172.93847656 C-165.00846207 173.47160461 -165.71003937 174.00473267 -166.43287659 174.55401611 C-178.69734996 183.41004828 -192.54411712 186.79315381 -207.52734375 185.06640625 C-211.89138457 184.18398071 -216.21101451 183.15704279 -220.52734375 182.06640625 C-228.68975655 205.91028553 -236.09773652 229.986476 -243.52734375 254.06640625 C-242.3525647 255.2409436 -242.3525647 255.2409436 -241.15405273 256.43920898 C-230.959419 266.6357378 -222.67142395 277.75589912 -222.296875 292.7578125 C-222.30080028 294.38156884 -222.3152245 296.00533181 -222.33984375 297.62890625 C-222.34048828 298.44037109 -222.34113281 299.25183594 -222.34179688 300.08789062 C-222.37634002 304.84333087 -222.7404514 309.37652782 -223.52734375 314.06640625 C-217.03403232 318.24959727 -210.34219728 321.93527495 -203.52734375 325.56640625 C-201.78993158 326.4970399 -200.05252274 327.42767985 -198.31536865 328.35879517 C-197.1311786 328.99338222 -195.94681088 329.62763783 -194.76226807 330.26156616 C-188.92387967 333.38627936 -183.09904141 336.53573309 -177.27734375 339.69140625 C-175.81228394 340.48526733 -175.81228394 340.48526733 -174.31762695 341.29516602 C-165.72712947 345.95283639 -157.14694643 350.62935927 -148.5703125 355.3125 C-147.75224121 355.7544873 -146.93416992 356.19647461 -146.09130859 356.65185547 C-144.2525173 357.66632479 -142.43169396 358.71362631 -140.62353516 359.78173828 C-139.6597998 360.34103027 -138.69606445 360.90032227 -137.703125 361.4765625 C-136.83212158 361.99484619 -135.96111816 362.51312988 -135.0637207 363.04711914 C-131.29614236 364.5611859 -128.85969115 363.58367053 -125.203125 362.1640625 C-124.42324219 361.82246094 -123.64335938 361.48085938 -122.83984375 361.12890625 C-110.76236741 356.22298898 -98.88106622 355.59557284 -86.4140625 359.5078125 C-78.1698183 361.1031128 -72.47880497 357.06867211 -65.71484375 352.94140625 C-63.56040168 351.65540218 -61.40543581 350.37027531 -59.25 349.0859375 C-58.14027832 348.42029785 -57.03055664 347.7546582 -55.88720703 347.06884766 C-50.50925825 343.86364958 -45.08081159 340.74751024 -39.65234375 337.62890625 C-37.46993387 336.37129888 -35.28764284 335.11348522 -33.10546875 333.85546875 C-29.81584085 331.96046326 -26.52608446 330.06568095 -23.23632812 328.17089844 C-19.95803323 326.28242137 -16.68018409 324.39317216 -13.40234375 322.50390625 C-12.46406738 321.96386963 -11.52579102 321.42383301 -10.55908203 320.86743164 C-8.5241955 319.69453382 -6.51095971 318.48361717 -4.515625 317.24462891 C-1.29090169 315.34640987 2.02391397 314.07474813 5.5234375 312.75927734 C12.42437736 309.89712113 18.65372494 306.93163318 23.47265625 301.06640625 C27.6666544 290.49255576 26.79194914 278.5849407 26.32216263 267.4157486 C26.22192114 264.79720356 26.16560518 262.18102763 26.12155151 259.56097412 C25.52880453 227.6828465 18.66597397 201.07582244 6.20117188 171.66552734 C2.12675068 161.97487144 -1.22817701 152.0320346 -4.64581299 142.09564209 C-6.34656321 137.17691515 -8.09646122 132.2759477 -9.84765625 127.375 C-10.16749481 126.47803406 -10.48733337 125.58106812 -10.81686401 124.65692139 C-14.69465013 113.78418288 -18.58948439 102.91755007 -22.52734375 92.06640625 C-24.46673828 92.13601563 -24.46673828 92.13601563 -26.4453125 92.20703125 C-42.85726188 92.6229841 -56.40873469 90.37031249 -68.953125 78.8359375 C-70.34736154 77.43674807 -71.72139553 76.01688526 -73.06640625 74.5703125 C-73.78957031 73.82587891 -73.78957031 73.82587891 -74.52734375 73.06640625 C-76.60919633 73.06640625 -78.73940219 74.72382173 -80.50390625 75.671875 Z M18.07421875 331.6015625 C16.66366211 332.43300781 16.66366211 332.43300781 15.22460938 333.28125 C14.19271484 333.89097656 13.16082031 334.50070312 12.09765625 335.12890625 C3.1230003 340.40239464 -5.91114499 345.54028479 -15.02734375 350.56640625 C-26.83944974 357.08360659 -38.50772654 363.82467522 -50.13476562 370.66552734 C-53.25183479 372.49060315 -56.38615401 374.28321705 -59.52734375 376.06640625 C-58.50503092 379.47411569 -57.30766362 382.52893246 -55.58984375 385.62890625 C-49.50419292 397.59507362 -48.92859463 411.34642702 -52.484375 424.1171875 C-54.25577506 429.12620264 -56.70771715 433.57717274 -59.52734375 438.06640625 C-59.97980469 438.79859375 -60.43226563 439.53078125 -60.8984375 440.28515625 C-67.74123668 450.36520037 -79.83093146 456.71390092 -91.52734375 459.37890625 C-106.81570186 461.88282632 -120.57352802 458.53831105 -133.52734375 450.06640625 C-134.86765166 448.74008417 -136.20288915 447.40855958 -137.52734375 446.06640625 C-138.18734375 446.06640625 -138.84734375 446.06640625 -139.52734375 446.06640625 C-139.79804687 445.49277344 -140.06875 444.91914062 -140.34765625 444.328125 C-141.54659093 442.0295052 -142.91206176 439.99850421 -144.40234375 437.87890625 C-152.0191227 426.50947036 -155.25415528 414.13761675 -152.921875 400.53515625 C-151.75893218 394.91524983 -150.41707166 389.48910373 -148.52734375 384.06640625 C-155.80908324 379.59171864 -163.23658889 375.46136485 -170.77734375 371.44140625 C-173.09271409 370.20101756 -175.40781407 368.96012408 -177.72265625 367.71875 C-178.87024414 367.10370605 -180.01783203 366.48866211 -181.20019531 365.85498047 C-186.02915971 363.25907548 -190.84216252 360.63441214 -195.65234375 358.00390625 C-201.44664477 354.83555702 -207.24493258 351.6751031 -213.0546875 348.53515625 C-214.14442871 347.94613525 -215.23416992 347.35711426 -216.35693359 346.75024414 C-218.46219813 345.61303245 -220.56796711 344.47675397 -222.67431641 343.34155273 C-223.62741699 342.82665283 -224.58051758 342.31175293 -225.5625 341.78125 C-226.82139038 341.10243774 -226.82139038 341.10243774 -228.10571289 340.40991211 C-229.83454067 339.45076912 -231.53345333 338.43687801 -233.20947266 337.38818359 C-235.38119026 335.86713275 -235.38119026 335.86713275 -237.578125 336.203125 C-239.84327666 337.20632844 -241.7033155 338.43163183 -243.71484375 339.87890625 C-256.7261403 348.74444655 -269.24875746 349.38544866 -284.52734375 349.06640625 C-290.77639326 360.88776488 -296.97393244 372.73505256 -303.1081543 384.61645508 C-305.84478016 389.91354843 -308.59105418 395.20412974 -311.3974762 400.46456909 C-312.33066522 402.2142367 -313.25949031 403.96622958 -314.18823242 405.71826172 C-315.35213929 407.91172314 -316.52390262 410.10103786 -317.7043457 412.28564453 C-318.222146 413.2651709 -318.73994629 414.24469727 -319.2734375 415.25390625 C-319.73419678 416.11371094 -320.19495605 416.97351563 -320.66967773 417.859375 C-321.84304421 420.18327731 -321.84304421 420.18327731 -320.52734375 423.06640625 C-318.31033622 424.4391544 -318.31033622 424.4391544 -315.58984375 425.69140625 C-302.85245431 432.39094225 -294.95342089 442.02658869 -290.2890625 455.48828125 C-286.73506086 467.51720989 -287.87629493 480.22985917 -291.52734375 492.06640625 C-282.72101246 497.56262087 -273.81369087 502.83013532 -264.77734375 507.94140625 C-250.9794374 515.74602726 -250.9794374 515.74602726 -245.109375 519.39453125 C-244.33110352 519.87422363 -243.55283203 520.35391602 -242.75097656 520.84814453 C-241.35389806 521.71650489 -239.96571584 522.59941959 -238.58886719 523.49951172 C-235.78408593 525.2340671 -234.20927183 526.19813084 -230.8984375 525.55859375 C-228.27018405 523.90456934 -225.94033694 522.01924725 -223.52734375 520.06640625 C-210.93471972 513.08550288 -196.40525105 511.51454079 -182.52734375 515.06640625 C-171.78768319 518.31615945 -160.2501303 524.98152709 -154.45117188 534.90869141 C-152.30894432 538.92107216 -150.35079924 543.01387016 -148.4753418 547.15698242 C-146.13004984 551.88078576 -144.60353146 554.50313111 -139.6105957 556.58666992 C-138.60716629 557.01449265 -137.60373688 557.44231537 -136.56990051 557.88310242 C-135.47948959 558.32902237 -134.38907867 558.77494232 -133.265625 559.234375 C-132.12820358 559.71409256 -130.99078217 560.19381012 -129.81889343 560.68806458 C-126.77982871 561.96638929 -123.73547292 563.23083323 -120.68792725 564.48876953 C-117.68237116 565.73311879 -114.68437235 566.99539401 -111.68554688 568.25585938 C-105.80592531 570.72290219 -99.91895886 573.1717776 -94.02886963 575.6137085 C-88.26881447 578.00341501 -82.51361762 580.40476731 -76.7578125 582.8046875 C-74.76590508 583.63460775 -72.7739655 584.46445083 -70.78198242 585.29418945 C-69.54408211 585.80983208 -69.54408211 585.80983208 -68.28117371 586.33589172 C-67.70240982 586.57696152 -67.12364594 586.81803131 -66.52734375 587.06640625 C-65.5983728 585.90407471 -65.5983728 585.90407471 -64.65063477 584.71826172 C-55.03914136 572.7141176 -45.13486449 563.83706907 -29.52734375 561.06640625 C-13.47556955 559.45488147 0.43492633 562.09025188 13.47265625 572.06640625 C15.95552648 574.28098098 18.23394823 576.60869418 20.47265625 579.06640625 C21.95765625 580.55140625 21.95765625 580.55140625 23.47265625 582.06640625 C23.47265625 498.57640625 23.47265625 415.08640625 23.47265625 329.06640625 C21.51265996 329.06640625 19.70140399 330.63699393 18.07421875 331.6015625 Z M22.47265625 642.06640625 C21.12150615 643.59248203 19.79233464 645.13803481 18.47265625 646.69140625 C9.51903575 656.69008656 -1.77750807 662.44688544 -15.27734375 663.3046875 C-28.55119841 663.64997021 -39.08361538 660.97494042 -50.52734375 654.06640625 C-51.85462145 653.38776339 -53.18633557 652.71749708 -54.52734375 652.06640625 C-59.38165428 656.82164922 -64.09666503 661.62133498 -68.5234375 666.77734375 C-71.09604447 669.7160332 -73.74680182 672.57774067 -76.40234375 675.44140625 C-81.49532446 680.93787737 -86.52916535 686.48343184 -91.52734375 692.06640625 C-96.372058 697.46979025 -101.23979688 702.8497135 -106.15234375 708.19140625 C-113.7851934 716.27037458 -113.7851934 716.27037458 -120.52734375 725.06640625 C-120.140625 725.66066406 -119.75390625 726.25492188 -119.35546875 726.8671875 C-110.75836239 740.55020579 -107.6546251 754.2491685 -110.77734375 770.33984375 C-111.73640982 773.82644851 -113.1144732 776.94628027 -114.8203125 780.12890625 C-115.71972843 782.59360406 -115.35868948 783.59920508 -114.52734375 786.06640625 C-113.35911001 787.93980744 -113.35911001 787.93980744 -111.859375 789.76171875 C-111.30314453 790.468125 -110.74691406 791.17453125 -110.17382812 791.90234375 C-109.56861328 792.65773438 -108.96339844 793.413125 -108.33984375 794.19140625 C-107.05451435 795.81887369 -105.76936298 797.44648173 -104.484375 799.07421875 C-103.4955835 800.31993652 -103.4955835 800.31993652 -102.48681641 801.59082031 C-99.47477699 805.39621275 -96.50185599 809.23166186 -93.52734375 813.06640625 C-92.36611149 814.56007162 -91.20465215 816.05356047 -90.04296875 817.546875 C-89.46611328 818.28856934 -88.88925781 819.03026367 -88.29492188 819.79443359 C-86.49278954 822.11082082 -84.68984234 824.42657183 -82.88671875 826.7421875 C-82.28770752 827.51175781 -81.68869629 828.28132813 -81.0715332 829.07421875 C-79.88827964 830.59414168 -78.70453406 832.11368172 -77.52026367 833.6328125 C-74.836925 837.07872799 -72.16594537 840.53233413 -69.53125 844.015625 C-68.84434082 844.92090942 -68.84434082 844.92090942 -68.14355469 845.84448242 C-66.93039879 847.44680238 -65.72278522 849.05331442 -64.515625 850.66015625 C-62.57743126 853.24107249 -62.57743126 853.24107249 -59.52734375 855.06640625 C-57.36977544 854.48692551 -57.36977544 854.48692551 -55.08984375 853.31640625 C-43.23108699 848.25369533 -31.02347693 848.33360703 -18.52734375 851.06640625 C-10.32860515 840.544062 -2.41723062 829.82119687 5.47265625 819.06640625 C8.01266431 815.60685096 10.5547442 812.1488273 13.09765625 808.69140625 C13.67741211 807.9010498 14.25716797 807.11069336 14.85449219 806.29638672 C15.40137695 805.55275879 15.94826172 804.80913086 16.51171875 804.04296875 C16.98818848 803.39408691 17.4646582 802.74520508 17.95556641 802.07666016 C19.47265625 800.06640625 19.47265625 800.06640625 21.53741074 797.8413744 C23.88213116 794.47925603 23.96701278 792.72155946 23.95367432 788.65666199 C23.95917297 787.3624231 23.96467163 786.0681842 23.97033691 784.73472595 C23.95618206 783.30776604 23.94164284 781.8808099 23.92675781 780.45385742 C23.92562908 778.94575023 23.92626371 777.43764083 23.92852783 775.92953491 C23.9296749 771.84092538 23.90616702 767.7527858 23.878232 763.66428542 C23.85321706 759.38952124 23.85087628 755.11474613 23.84613037 750.83992004 C23.83370085 742.74743419 23.80087961 734.65516464 23.76073241 726.562774 C23.71601393 717.34883732 23.69402748 708.13489028 23.67395067 698.92087209 C23.63214693 679.96926088 23.56179537 661.01785096 23.47265625 642.06640625 C23.14265625 642.06640625 22.81265625 642.06640625 22.47265625 642.06640625 Z " fill="#888888" transform="translate(929.52734375,317.93359375)"/>
<path d="M0 0 C142.89 0 285.78 0 433 0 C433 37.29 433 74.58 433 113 C378.55 113 324.1 113 268 113 C268 334.43 268 555.86 268 784 C233.68 784 199.36 784 164 784 C164 562.57 164 341.14 164 113 C109.88 113 55.76 113 0 113 C0 75.71 0 38.42 0 0 Z " fill="#888888" transform="translate(3359,415)"/>
<path d="M0 0 C11.83461054 7.6599421 20.58178878 18.07742788 24.11132812 32.05029297 C26.49193332 43.6916824 25.60541506 54.89213378 21.625 66.125 C31.50564483 72.3488024 41.44646852 78.46718367 51.42797852 84.52783203 C59.94273563 89.70109235 68.42793001 94.92145374 76.90917969 100.14941406 C85.12057917 105.20767537 93.34736524 110.24012392 101.60498047 115.22265625 C105.93298195 117.84097127 110.22217951 120.49229204 114.4375 123.2890625 C115.17210449 123.77068848 115.90670898 124.25231445 116.66357422 124.74853516 C118.00902257 125.63615952 119.34491872 126.53852075 120.66845703 127.45849609 C122.61474796 128.79542886 122.61474796 128.79542886 125.625 130.125 C128.27659414 129.6155396 128.27659414 129.6155396 130.625 128.125 C132.4548527 127.42828884 134.28829658 126.74094522 136.125 126.0625 C137.0428125 125.72089844 137.960625 125.37929688 138.90625 125.02734375 C151.03699088 121.00119268 164.84342477 122.3510999 176.4609375 127.34375 C186.83294584 132.57333403 194.88746168 140.03920151 200.625 150.125 C201.01429688 150.79402344 201.40359375 151.46304688 201.8046875 152.15234375 C208.1051241 163.76446229 208.60868287 178.50319017 204.9375 191.0625 C203.0600991 196.67925084 200.32127449 201.86703718 197.625 207.125 C200.287342 209.81681275 202.95566667 212.50262147 205.625 215.1875 C206.36878906 215.93966797 207.11257813 216.69183594 207.87890625 217.46679688 C212.04895018 221.65497143 216.30530753 225.65172558 220.78515625 229.50561523 C223.52874594 231.92045472 226.07495087 234.5091208 228.625 237.125 C231.86715227 240.41173187 235.10450983 243.63258336 238.625 246.625 C242.7145362 250.10110577 246.4346054 253.90749656 250.203125 257.72265625 C252.92808001 260.46825486 255.67523473 263.11769952 258.625 265.625 C262.71374765 269.1004355 266.43316684 272.90600237 270.20092773 276.72045898 C273.5308233 280.07560894 276.96431399 283.22225452 280.56640625 286.28515625 C283.69113297 289.0778437 286.60177634 292.08080252 289.54345703 295.06298828 C292.85722514 298.40453509 296.27671356 301.55441685 299.87109375 304.58984375 C300.73927734 305.34974609 300.73927734 305.34974609 301.625 306.125 C302.31199698 306.7067055 302.99899397 307.28841101 303.70680904 307.88774395 C306.06954455 310.64348852 306.11043834 311.87242917 306.06996155 315.45625305 C306.0679776 316.53706146 306.06599365 317.61786987 306.06394958 318.73143005 C306.0304818 320.50273033 306.0304818 320.50273033 305.99633789 322.30981445 C305.98534058 324.18114044 305.98534058 324.18114044 305.97412109 326.090271 C305.95664979 328.80202741 305.93217424 331.51274854 305.89689827 334.22423744 C305.84309334 338.51533839 305.82719811 342.80605811 305.81871033 347.09745789 C305.78961853 359.29941688 305.72464707 371.50065489 305.58764648 383.7019043 C305.51227991 390.44271839 305.4763502 397.18256618 305.48367494 403.92381066 C305.48613551 408.18691693 305.44049298 412.44589444 305.3590976 416.70818102 C305.31091224 419.98950127 305.33497462 423.27044009 305.34790039 426.55200195 C305.31141891 427.72679611 305.27493744 428.90159027 305.23735046 430.11198425 C305.29189342 433.4582237 305.45002296 435.98746758 306.625 439.125 C309.96372115 442.20435102 313.615797 444.05744055 317.625 446.125 C327.22253713 453.78581796 333.49430564 465.1225087 335.625 477.125 C337.15153521 492.33022596 335.02727093 506.64929857 325.625 519.125 C316.16343041 530.31592502 304.86117202 536.32614805 290.625 539.125 C289.07935196 544.74891213 287.53866914 550.37417463 286 556 C285.75066711 556.91129669 285.50133423 557.82259338 285.2444458 558.76150513 C281.36733759 572.94455844 277.542805 587.14125323 273.74433517 601.34553528 C272.99986992 604.12939268 272.25505445 606.91315619 271.51016235 609.69689941 C269.25412078 618.12910594 266.99966521 626.56172281 264.75188828 634.99613667 C263.80006752 638.56524954 262.84574631 642.13369062 261.89083862 645.70197868 C261.4411869 647.38452586 260.99264145 649.0673691 260.54525757 650.75052071 C259.92671162 653.07720234 259.3043717 655.40283801 258.68115234 657.72827148 C258.5014559 658.40801466 258.32175945 659.08775784 258.13661766 659.78809929 C256.50116861 665.86159708 255.06973016 670.07364333 250.51953125 674.48828125 C249.70033203 675.29330078 248.88113281 676.09832031 248.03710938 676.92773438 C247.17923828 677.75595703 246.32136719 678.58417969 245.4375 679.4375 C238.60849067 686.04043657 238.60849067 686.04043657 232.19921875 693.04296875 C227.20272164 698.87792663 221.63406404 704.1723638 216.16796875 709.56152344 C210.96627034 714.69662328 205.83376467 719.83849855 201.10522461 725.41992188 C198.75032194 728.13254603 196.1953381 730.61735307 193.625 733.125 C195.0131887 736.06663796 196.6307878 738.65395726 198.5 741.3125 C206.79258479 753.67047391 209.23782034 766.45404553 207.1953125 781.234375 C204.16665921 795.36809037 196.49177311 806.92880056 184.66796875 815.19140625 C171.53807251 823.26485978 156.88962482 825.77899875 141.6875 822.36328125 C136.99027996 820.98782214 132.75501904 819.34034236 128.5625 816.8125 C125.90417621 814.89526924 125.90417621 814.89526924 123.69262695 815.35986328 C121.39017989 816.21189647 119.6256748 817.28434424 117.60546875 818.6796875 C116.83855713 819.20618896 116.07164551 819.73269043 115.28149414 820.27514648 C114.46672607 820.84434814 113.65195801 821.4135498 112.8125 822 C111.96228271 822.58789307 111.11206543 823.17578613 110.23608398 823.78149414 C104.55510601 827.72775728 98.95264763 831.77059299 93.39672852 835.89038086 C85.73439018 841.55800766 77.89017949 846.96732244 70.07226562 852.41699219 C58.85550797 860.24544755 47.72484682 868.18921583 36.6484375 876.21484375 C35.63861816 876.94356689 35.63861816 876.94356689 34.60839844 877.68701172 C33.27294757 878.65523004 31.94293519 879.6309892 30.61816406 880.61376953 C25.84032534 884.125 25.84032534 884.125 23.625 884.125 C23.8415625 884.79402344 24.058125 885.46304688 24.28125 886.15234375 C28.58818658 901.00728706 27.97762969 915.79038754 21 929.6875 C13.50676314 942.63877358 2.66085413 951.13571502 -11.44921875 955.8125 C-26.33187417 959.77387224 -41.13254916 956.70441567 -54.265625 949.1953125 C-65.00308843 942.0459964 -73.67399008 930.83273525 -76.9375 918.20703125 C-79.23935475 901.9912866 -77.45766859 887.3749058 -68.265625 873.546875 C-66.44260433 871.21160059 -64.55381026 869.42364424 -62.3125 867.5 C-60.62738537 866.00561964 -60.62738537 866.00561964 -59.375 864.125 C-59.31621263 862.14115183 -59.31621263 862.14115183 -59.95898438 860.07226562 C-60.16990723 859.2758667 -60.38083008 858.47946777 -60.59814453 857.65893555 C-61.95090907 853.24650841 -63.48416357 848.91848351 -65.09375 844.59375 C-65.46433533 843.58413712 -65.83492065 842.57452423 -66.21673584 841.53431702 C-67.0155263 839.36049478 -67.81693892 837.18763461 -68.62072754 835.01565552 C-69.88962072 831.58547603 -71.15032955 828.15238267 -72.40917969 824.71850586 C-76.36155898 813.948957 -80.34341826 803.19084155 -84.36987305 792.44876099 C-86.05809666 787.94151574 -87.73772461 783.43108936 -89.41674805 778.92041016 C-90.61018037 775.72715276 -91.81762026 772.53941898 -93.02539062 769.3515625 C-93.7520103 767.40260764 -94.47795928 765.45340256 -95.203125 763.50390625 C-95.54172546 762.62291763 -95.88032593 761.74192902 -96.22918701 760.83424377 C-99.05979916 753.14238566 -99.05979916 753.14238566 -97.375 749.125 C-95.99560547 747.30737305 -95.99560547 747.30737305 -94.2421875 745.63671875 C-93.60442383 745.01700195 -92.96666016 744.39728516 -92.30957031 743.75878906 C-91.62991211 743.11651367 -90.95025391 742.47423828 -90.25 741.8125 C-88.86539939 740.46928867 -87.48256027 739.12425899 -86.1015625 737.77734375 C-85.11784668 736.82190674 -85.11784668 736.82190674 -84.11425781 735.84716797 C-81.62361577 733.38099883 -79.36702899 730.75472509 -77.109375 728.078125 C-74.35573232 724.97717603 -71.37394779 722.1037837 -68.4230957 719.19262695 C-65.17433655 715.97069395 -62.15026021 712.63124039 -59.18359375 709.15234375 C-56.20338341 705.811676 -52.97669406 702.71941183 -49.79296875 699.57421875 C-47.06371756 696.80969452 -44.51654263 693.94901135 -42.0546875 690.9453125 C-40.375 689.125 -40.375 689.125 -38.3203125 687.7421875 C-35.84713947 685.98113433 -34.68247633 684.89684982 -33.375 682.125 C-33.22899531 678.21444194 -33.86983279 674.38644994 -34.43164062 670.52587891 C-36.27833232 657.71507246 -33.89750758 645.44035467 -26.66796875 634.5546875 C-24.0849051 631.14436817 -21.63783587 628.33955989 -18.3125 625.625 C-17.673125 624.8 -17.03375 623.975 -16.375 623.125 C-17.69427006 614.58847969 -20.74315058 606.36775973 -23.390625 598.1640625 C-23.88941897 596.60830036 -24.38784526 595.0524203 -24.88592529 593.49642944 C-26.19529465 589.40916972 -27.50935759 585.32343464 -28.82452393 581.23803711 C-30.40096288 576.33815471 -31.9724972 571.43669632 -33.54310989 566.53494358 C-34.80115511 562.60976644 -36.06279906 558.68583333 -37.33319092 554.76463318 C-39.38172124 548.43109565 -41.41326274 542.10516548 -43.22753906 535.69946289 C-43.48815125 534.7984787 -43.74876343 533.89749451 -44.01727295 532.96920776 C-44.46341685 531.40622901 -44.89021555 529.83750038 -45.29083252 528.26223755 C-46.3580369 524.55764012 -47.08012145 523.30047169 -50.45166016 521.29418945 C-53.63369902 520.23549226 -53.63369902 520.23549226 -57.0546875 519.71875 C-65.12419231 518.27573267 -72.39764162 512.50186013 -77.375 506.125 C-84.65528541 494.89352044 -87.37598714 484.05035097 -84.6875 470.71484375 C-81.54334962 459.51380802 -75.998276 450.83789314 -66.375 444.125 C-55.29139623 438.44218534 -43.47132132 435.94580756 -31.1875 439.25 C-16.62535 444.30892873 -10.11827224 452.85081902 -2.375 466.125 C17.425 456.225 37.225 446.325 57.625 436.125 C57.625 432.71181743 56.84704534 431.34753525 55.25 428.375 C49.17195554 416.45928572 48.44963601 404.05993862 51.625 391.125 C53.82536115 384.62463732 56.50050296 378.62432938 60.625 373.125 C57.5098396 366.27164712 51.67405902 361.11082411 46.37109375 355.90234375 C44.56022357 354.05906426 42.87178646 352.14677201 41.1875 350.1875 C38.76882221 347.37923653 36.26600317 344.72529407 33.625 342.125 C30.35297872 338.9034145 27.33183945 335.53907855 24.33984375 332.05859375 C22.1245262 329.56068444 19.7560183 327.24475011 17.375 324.90625 C14.91865151 322.40603815 12.66190632 319.74819484 10.375 317.09375 C8.68701714 315.19476929 6.93730266 313.40494012 5.125 311.625 C2.69110268 309.23446833 0.41144441 306.77453738 -1.8125 304.1875 C-4.90245588 300.5964702 -8.19973642 297.27909444 -11.57421875 293.95703125 C-13.68646524 291.80812973 -15.56766075 289.53478566 -17.375 287.125 C-17.95507812 287.25777344 -18.53515625 287.39054687 -19.1328125 287.52734375 C-37.0049364 291.5677414 -51.36668433 290.69164613 -67.375 281.125 C-77.30304603 273.77001803 -83.85872755 262.72835064 -86.08984375 250.5546875 C-87.74689402 236.43571124 -84.92375725 223.63220358 -76.375 212.125 C-68.91887176 202.7933096 -59.16036338 197.08922723 -47.375 195.125 C-47.375 161.465 -47.375 127.805 -47.375 93.125 C-50.345 92.135 -50.345 92.135 -53.375 91.125 C-65.7167982 83.07952564 -74.18385308 72.23068801 -78.375 58.125 C-78.56835938 57.52558594 -78.76171875 56.92617188 -78.9609375 56.30859375 C-81.72618215 41.7258413 -78.50254328 27.38729783 -70.375 15.125 C-53.39267934 -7.09516285 -24.6582873 -14.06929305 0 0 Z M6.625 85.125 C5.92375 85.59550781 5.2225 86.06601562 4.5 86.55078125 C-3.64916371 91.89866993 -10.96064828 94.80807232 -20.375 97.125 C-20.42941094 110.45651728 -20.43267033 123.78675842 -20.38021851 137.11830139 C-20.35928834 144.3686725 -20.41153052 151.61371168 -20.52635193 158.86315918 C-20.58867613 163.42043501 -20.60229388 167.97706743 -20.60592651 172.534729 C-20.61858288 174.70972125 -20.65234368 176.88469887 -20.70779419 179.059021 C-21.47563108 190.89250293 -21.47563108 190.89250293 -16.77294922 201.13037109 C-13.71810346 203.15591221 -10.69775112 204.60007243 -7.375 206.125 C1.45790154 213.89612815 6.95328856 224.40385967 8.4453125 236.05078125 C9.02251471 245.92595815 8.11041732 256.39895725 2.875 265 C1.45259912 266.96931681 1.45259912 266.96931681 1.72265625 268.89453125 C3.05135159 272.17888206 5.38954749 274.42570207 7.8125 276.9375 C8.60901978 277.78139282 8.60901978 277.78139282 9.42163086 278.64233398 C10.56119309 279.84946508 11.70362659 281.05389085 12.84863281 282.25585938 C15.8169251 285.37917518 18.74986682 288.53538196 21.6875 291.6875 C22.27942139 292.32083252 22.87134277 292.95416504 23.48120117 293.60668945 C27.94679393 298.38593768 32.36848445 303.20316534 36.78125 308.03125 C40.0386476 311.58477465 43.33204512 315.10445429 46.625 318.625 C50.81479278 323.10436809 54.98708866 327.59763818 59.125 332.125 C60.95735479 334.12590969 62.79035966 336.12618871 64.625 338.125 C65.2034668 338.75535156 65.78193359 339.38570312 66.37792969 340.03515625 C68.24798503 342.0688047 70.12339088 344.09739934 72 346.125 C72.87495117 347.07826172 72.87495117 347.07826172 73.76757812 348.05078125 C76.84469726 351.3656939 79.85756667 354.5785546 83.625 357.125 C86.46998835 356.54090372 86.46998835 356.54090372 89.625 355.125 C91.35376753 354.7313419 93.09039882 354.37120756 94.83203125 354.0390625 C95.73026611 353.86584473 96.62850098 353.69262695 97.55395508 353.51416016 C98.2373999 353.3857373 98.92084473 353.25731445 99.625 353.125 C103.33223635 337.21543634 106.70167276 321.25206985 109.92578125 305.23828125 C110.41173082 302.83307421 110.89783304 300.427898 111.38407898 298.02275085 C112.39167741 293.03562024 113.39734942 288.04810626 114.40161133 283.06030273 C115.69009888 276.66175681 116.98370963 270.26425868 118.27872944 263.86703205 C119.27848516 258.92538574 120.27550503 253.98319055 121.27168846 249.04082298 C121.74808321 246.67907409 122.22535418 244.31750176 122.70351601 241.95611 C123.3667504 238.67873515 124.02628265 235.40063696 124.68481445 232.12231445 C124.88267548 231.14843277 125.0805365 230.17455109 125.28439331 229.17115784 C125.55122169 227.83694794 125.55122169 227.83694794 125.82344055 226.4757843 C125.97918202 225.70332021 126.1349235 224.93085611 126.29538441 224.13498402 C126.70591381 221.97106238 126.70591381 221.97106238 126.625 219.125 C125.09069237 217.71323264 125.09069237 217.71323264 123.0625 216.4375 C112.58595087 208.88034199 105.87555571 197.90582575 103.625 185.125 C103.32070667 182.05628484 103.2443252 179.02017635 103.25 175.9375 C103.25016113 175.1110498 103.25032227 174.28459961 103.25048828 173.43310547 C103.38565907 166.10400315 104.88349676 159.94874165 107.625 153.125 C108.29182452 151.45839648 108.95851373 149.79173881 109.625 148.125 C97.83564114 140.71848288 86.03241276 133.34054597 74.125 126.125 C66.251863 121.35376971 58.42334321 116.51750869 50.625 111.625 C42.50792844 106.53565651 34.36708942 101.4883303 26.1875 96.5 C25.25873047 95.93216797 24.32996094 95.36433594 23.37304688 94.77929688 C17.86059645 91.4268598 12.29160431 88.20989142 6.625 85.125 Z M170.9375 224.5 C164.66451624 226.64174688 158.18056792 227.33236377 151.625 228.125 C149.58212813 236.03848193 147.76904609 243.96554759 146.1730957 251.98046875 C145.9483255 253.09745651 145.7235553 254.21444427 145.49197388 255.36528015 C144.7586498 259.01377326 144.02952144 262.66308877 143.30078125 266.3125 C142.78954356 268.86412316 142.27816332 271.41571777 141.76664734 273.96728516 C140.69983983 279.29242175 139.63515412 284.61797635 138.57202148 289.94384766 C137.34398672 296.09555202 136.11100205 302.24624972 134.87561542 308.39648151 C133.6831011 314.33424408 132.49487255 320.27285519 131.30837059 326.21182251 C130.80438587 328.73189962 130.29920418 331.25173765 129.79281044 333.77133179 C129.08776618 337.28172697 128.38760548 340.79306161 127.6887207 344.3046875 C127.47836685 345.34678879 127.268013 346.38889008 127.05128479 347.46257019 C126.86209473 348.41835464 126.67290466 349.3741391 126.47798157 350.35888672 C126.31226811 351.18766327 126.14655466 352.01643982 125.97581959 352.87033081 C125.52250206 355.40344031 125.52250206 355.40344031 125.625 359.125 C127.60040593 360.69140762 127.60040593 360.69140762 130.1875 361.9375 C142.52259321 368.91404778 148.49003714 379.85070896 152.625 393.125 C152.81964844 393.73601562 153.01429688 394.34703125 153.21484375 394.9765625 C156.1332574 410.26349113 152.12312722 424.40619936 143.625 437.125 C135.7948883 448.54887118 123.06167836 454.13825945 109.8671875 456.62109375 C100.2348281 458.11817129 90.50367528 456.52894617 81.45239258 452.82763672 C76.1639624 451.8567812 73.50751823 453.51517773 68.921875 456.03125 C68.09434219 456.46250687 67.26680939 456.89376373 66.41419983 457.33808899 C63.72309934 458.7465731 61.04949094 460.18526529 58.375 461.625 C56.52282377 462.60193285 54.66954418 463.57677659 52.81518555 464.54956055 C49.12216167 466.49030609 45.4353443 468.44209418 41.75341797 470.40380859 C36.71780633 473.08300998 31.65392221 475.70319234 26.57637024 478.30177307 C21.78387357 480.75489246 17.01474109 483.25042795 12.25097656 485.75878906 C9.87702712 486.99387842 7.48727901 488.1865731 5.0859375 489.3671875 C-1.98963 492.94873404 -5.7776109 496.18078243 -9.0859375 503.5078125 C-11.98167575 509.38703864 -17.35245187 513.11857135 -22.375 517.125 C-12.13725188 548.49050723 -1.86366208 579.84238199 8.625 611.125 C12.50394731 611.94734668 16.15996527 612.27835296 20.125 612.4375 C28.26012228 612.97585368 36.41769911 614.55830695 43.45556641 618.85180664 C46.52652501 620.46496457 46.52652501 620.46496457 49.40380859 619.31079102 C50.35078613 618.75576904 51.29776367 618.20074707 52.2734375 617.62890625 C53.34875732 617.01450684 54.42407715 616.40010742 55.53198242 615.76708984 C56.68822893 615.0742947 57.84422853 614.38108735 59 613.6875 C60.20747687 612.98691308 61.41623826 612.28853576 62.6262207 611.59228516 C65.71818284 609.80570553 68.79323308 607.99209148 71.8637085 606.16888428 C74.53373084 604.58641236 77.21419631 603.0219553 79.89453125 601.45703125 C82.85394113 599.72907319 85.81254935 597.99997097 88.76635742 596.26245117 C96.69348734 591.61420191 104.74210339 587.22049111 112.83886719 582.8762207 C120.16983488 578.93591538 127.41289522 574.86320343 134.6262207 570.7121582 C141.39043511 566.82154235 148.1877391 562.99332008 155 559.1875 C165.94651843 553.06980933 176.86945125 546.91153181 187.78222656 540.73388672 C191.60422429 538.57080143 195.42744237 536.40987975 199.25097656 534.24951172 C201.15180402 533.17508886 203.052202 532.09990581 204.95214844 531.02392578 C210.00825111 528.16170174 215.07249315 525.31518948 220.1484375 522.48828125 C221.21126953 521.89402344 222.27410156 521.29976562 223.36914062 520.6875 C225.42005353 519.5411382 227.47335991 518.39904558 229.52929688 517.26171875 C230.90311523 516.49214844 230.90311523 516.49214844 232.3046875 515.70703125 C233.52260986 515.02991089 233.52260986 515.02991089 234.76513672 514.33911133 C236.7715213 513.25237959 236.7715213 513.25237959 237.625 511.125 C236.88662123 508.82505031 236.88662123 508.82505031 235.75 506.3125 C230.65638919 494.54020369 231.072723 480.00795048 235.359375 468.0234375 C241.60511928 453.71991201 251.19082338 443.71955899 265.8125 437.94921875 C268.46968551 437.17051577 271.08533489 436.60736837 273.80078125 436.07348633 C274.70352783 435.89529861 275.60627441 435.7171109 276.53637695 435.53352356 C277.22562256 435.39871078 277.91486816 435.26389801 278.625 435.125 C279.02410967 420.79953321 279.32171187 406.47494101 279.50580692 392.14503479 C279.59421277 385.48897642 279.71389251 378.83767736 279.9074707 372.18359375 C280.09341033 365.75116659 280.19407319 359.32232937 280.23791313 352.88742065 C280.2691135 350.44391373 280.33004888 348.0005843 280.42241096 345.55862427 C281.20761998 330.90002934 281.20761998 330.90002934 274.96031189 318.18348694 C271.47446377 314.67388541 267.71362764 311.65401914 263.72727203 308.73507118 C260.53027432 306.28658031 257.77917216 303.4580342 254.99609375 300.55859375 C253.99545142 299.54752916 252.99367351 298.53758582 251.99023438 297.52929688 C251.0140046 296.54067881 250.03809399 295.55174548 249.0625 294.5625 C241.60481528 286.91826721 241.60481528 286.91826721 233.72265625 279.72265625 C227.06164889 274.030895 221.05138714 267.60393328 214.89746094 261.37695312 C209.27598632 255.69475763 203.69655106 250.06551673 197.60498047 244.88232422 C193.26539865 241.0307447 189.25877833 236.81825646 185.1875 232.6875 C183.39940574 230.87406068 181.60916643 229.06273299 179.81640625 227.25390625 C178.64380249 226.06390015 178.64380249 226.06390015 177.44750977 224.84985352 C174.63361466 222.18673645 174.99817081 222.98585156 170.9375 224.5 Z M244.45532227 534.30639648 C243.32402357 535.01619415 242.19309228 535.72657767 241.0625 536.4375 C239.86664524 537.15082227 238.66860401 537.86049058 237.46850586 538.56665039 C235.0144767 540.01809675 232.5742045 541.489232 230.14355469 542.97949219 C225.99775725 545.51804105 221.79358384 547.95194742 217.58520508 550.38500977 C214.6397336 552.09015211 211.70402676 553.81120326 208.76953125 555.53515625 C202.16532565 559.40459949 195.52364206 563.20764329 188.875 567 C188.29050079 567.33345428 187.70600159 567.66690857 187.10379028 568.01046753 C184.13271153 569.70521371 181.16119122 571.39918372 178.18945312 573.09277344 C172.91388953 576.09980863 167.6422894 579.11377937 162.37042236 582.12728882 C159.45799369 583.79207936 156.54542775 585.45662965 153.6328125 587.12109375 C153.05570526 587.45089737 152.47859802 587.78070099 151.88400269 588.12049866 C148.36449621 590.13161453 144.84433188 592.14157378 141.32366943 594.15066528 C128.35332549 601.55234916 115.39309148 608.97070372 102.46850586 616.45214844 C96.59775153 619.84700139 90.71242998 623.21393254 84.80859375 626.55078125 C82.86064662 627.65426237 80.91286487 628.758035 78.96508789 629.86181641 C77.70383789 630.57490091 76.44147767 631.28602555 75.17797852 631.99511719 C73.42719352 632.97770298 71.68029345 633.96720142 69.93359375 634.95703125 C68.93126709 635.52139893 67.92894043 636.0857666 66.89624023 636.66723633 C64.51252355 637.92398606 64.51252355 637.92398606 63.625 640.125 C64.36395103 642.65142835 64.36395103 642.65142835 65.5 645.4375 C70.60985346 658.53373281 69.94083652 672.2101316 64.625 685.125 C58.91397217 698.07135135 48.81118049 706.95313221 35.859375 712.3125 C22.79107217 717.06461012 8.51245172 716.13078599 -4.375 711.125 C-7.47327977 709.42276865 -10.29992467 707.61527307 -13.140625 705.515625 C-15.50236817 703.77273534 -15.50236817 703.77273534 -19.375 704.125 C-21.63753642 706.06516195 -23.64512575 707.97429572 -25.6875 710.125 C-26.26709473 710.72006348 -26.84668945 711.31512695 -27.44384766 711.92822266 C-31.03147884 715.63668341 -34.49528309 719.43410177 -37.8359375 723.3671875 C-39.98034094 725.81637924 -42.30361221 728.06381556 -44.625 730.34375 C-46.45742487 732.20889674 -48.16853135 734.14427746 -49.875 736.125 C-52.1205794 738.73147609 -54.42051512 741.21434521 -56.875 743.625 C-61.43884391 748.116729 -65.81813001 752.78969502 -69.375 758.125 C-69.13360475 760.06955036 -69.13360475 760.06955036 -68.3112793 762.12597656 C-67.88193085 763.34205597 -67.88193085 763.34205597 -67.44390869 764.58270264 C-66.95153717 765.91074921 -66.95153717 765.91074921 -66.44921875 767.265625 C-65.94754181 768.66787323 -65.94754181 768.66787323 -65.43572998 770.09844971 C-64.32414151 773.19542115 -63.19342712 776.2850436 -62.0625 779.375 C-61.28989752 781.51584354 -60.51850885 783.6571255 -59.74829102 785.79882812 C-58.13362613 790.28086672 -56.51070376 794.75978729 -54.88085938 799.23632812 C-52.39121012 806.07449359 -49.92048213 812.91939004 -47.453125 819.765625 C-43.44140347 830.89062849 -39.41340179 842.00965617 -35.375 853.125 C-34.58561035 853.11629883 -33.7962207 853.10759766 -32.98291016 853.09863281 C-17.96611516 853.00220942 -6.34075289 855.67144064 6.625 863.125 C7.69717773 862.39837158 8.76935547 861.67174316 9.87402344 860.9230957 C35.30744126 843.69446491 60.85654419 826.65391262 86.53460693 809.79219055 C93.92150974 804.93813838 101.27923087 800.04102547 108.625 795.125 C108.32811279 794.19913086 108.03122559 793.27326172 107.7253418 792.31933594 C102.64291389 776.37024436 102.04699183 762.22894774 109.375 746.75 C116.54146565 733.52365531 127.51973738 725.9531097 141.625 721.125 C146.07035492 719.93161613 150.49087109 719.97616875 155.0625 720 C155.80048828 719.99613281 156.53847656 719.99226563 157.29882812 719.98828125 C158.38647461 719.99021484 158.38647461 719.99021484 159.49609375 719.9921875 C160.20677002 719.99323486 160.91744629 719.99428223 161.6496582 719.99536133 C163.625 720.125 163.625 720.125 166.6328125 721.12890625 C170.37030423 721.12402702 170.99045833 720.27600355 173.68359375 717.78515625 C175.16139365 716.27011206 176.62047064 714.73662968 178.0625 713.1875 C178.78759766 712.43919922 179.51269531 711.69089844 180.25976562 710.91992188 C183.66135473 707.38385845 186.95472589 703.77296684 190.16015625 700.05859375 C194.40688152 695.15600357 199.03643026 690.66398028 203.6640625 686.125 C206.98265272 682.84484905 210.17055917 679.53854243 213.19140625 675.98046875 C215.34338752 673.46992557 217.48132864 671.33076838 220.08984375 669.30078125 C228.40688733 662.68291358 231.86256379 656.08774217 234.35546875 645.83984375 C234.85295902 643.92298038 235.3504672 642.00612161 235.84844208 640.08938408 C236.39440141 637.97096979 236.92912318 635.84996537 237.46157837 633.7281189 C238.70378362 628.79019113 239.99407869 623.86530378 241.2878418 618.94067383 C243.96921522 608.71878912 246.61570341 598.48808723 249.25610352 588.2555542 C250.25875604 584.37303155 251.26432844 580.49126753 252.26990318 576.60950089 C253.2473776 572.83502469 254.22330945 569.06015101 255.19874954 565.28514862 C255.66000349 563.50060262 256.12166146 561.716161 256.58375168 559.93183136 C257.22581642 557.45136436 257.86586185 554.97038472 258.50537109 552.48925781 C258.69132843 551.77236282 258.87728577 551.05546783 259.06887817 550.31684875 C260.3649738 545.27606144 261.52252519 540.21150306 262.625 535.125 C255.83090567 529.27154287 251.96804232 529.92989474 244.45532227 534.30639648 Z " fill="#888888" transform="translate(1130.375,313.875)"/>
</svg>
